<?xml version="1.0" encoding="UTF-8"?>
<!-- Generated by Pixelmator Pro 3.8 -->
<svg width="1024" height="1024" viewBox="0 0 1024 1024" xmlns="http://www.w3.org/2000/svg">
    <style>:root{color:#000}@media(prefers-color-scheme:dark){:root{color:#fff}}</style>
    <g id="projects">
        <g id="professional">
            <g id="porcelanosa">
                <path id="path5" fill="currentColor" fill-rule="evenodd" stroke="none" d="M 416.803009 510.492065 L 416.858704 254.889099 C 608.300476 188.77002 699.703064 409.743591 563.778748 499.829956 C 518.128845 530.085205 471.07608 528.840027 416.803009 510.492065 Z M 318.722504 207.395325 C 328.834351 216.569702 337.60614 222.78064 337.60614 244.28717 L 337.613434 778.682739 C 337.613434 806.633179 330.648865 804.968994 319.499146 819.16095 L 432.08255 819.25 C 420.801605 793.787048 416.477539 818.026733 416.817596 760.011108 C 417.175232 698.490479 413.780151 591.645081 417.585541 540.640747 C 496.394379 563.436584 563.78479 569.760376 628.588318 527.473755 C 684.980652 490.674255 716.269226 417.142822 700.81665 344.850281 C 684.544189 268.730957 646.440063 231.678467 569.950806 214.353638 C 513.816711 201.636597 381.479614 204.704651 318.722504 207.395325"/>
            </g>
        </g>
    </g>
</svg>
