<?xml version="1.0" encoding="UTF-8"?>
<!-- Generated by Pixelmator Pro 3.8 -->
<svg width="1024" height="1024" viewBox="0 0 1024 1024" xmlns="http://www.w3.org/2000/svg">
  <style>:root{color:#000}@media(prefers-color-scheme:dark){:root{color:#fff}}</style>
  <g id="projects">
    <g id="professional">
      <g id="porcelanosa">
        <path id="path1" fill="currentColor" fill-rule="evenodd" stroke="none"
          d="M 205.993683 471.559814 C 227.516647 468.440674 242.412903 488.681885 244.105942 508.364441 C 246.014648 530.560303 232.451416 550.620239 213.934448 553.268921 C 192.349075 556.356323 177.283951 536.208069 175.548553 516.711304 C 173.523941 493.97168 187.240982 474.27771 205.993683 471.559814 Z M 257.498627 516.864746 C 260.569855 489.829346 239.157776 468.630737 215.318741 466.403809 C 187.110016 463.768982 165.122849 482.697205 162.178696 506.457031 C 158.702347 534.514282 180.711258 554.677124 204.612167 557.3479 C 232.103668 560.420166 254.779083 540.797424 257.498627 516.864746" />
        <path id="path2" fill="currentColor" fill-rule="evenodd" stroke="none"
          d="M 704.906555 515.750183 C 703.101013 493.799988 717.657349 473.319702 735.975281 471.413269 C 757.375061 469.18689 772.315979 489.081482 773.653442 509.172913 C 775.119141 531.240845 761.231567 551.405884 742.417603 553.398804 C 720.822693 555.685669 706.53949 535.607666 704.906555 515.750183 Z M 691.481567 515.750183 C 693.576965 540.133484 715.768127 559.447388 743.175415 557.503601 C 767.673767 555.765991 789.435791 535.170776 787.061768 508.057251 C 784.921814 483.597778 763.020447 464.530762 735.351196 466.286804 C 710.719116 467.849976 689.179993 489.012939 691.481567 515.750183" />
        <path id="path3" fill="currentColor" fill-rule="evenodd" stroke="none"
          d="M 675.520874 466.162476 C 677.248474 469.075439 677.443542 468.67865 677.40448 473.390503 C 677.259583 492.386719 677.889343 513.724365 677.343201 532.02887 C 675.175354 530.12085 672.650879 526.361328 670.533203 523.749268 L 657.178894 507.00885 C 651.927612 500.5354 628.281921 471.588257 624.704224 466.151367 L 608.335022 466.179749 C 608.993103 470.442444 609.907104 468.673096 612.154663 470.60968 L 612.175781 552.531128 C 612.175781 555.087036 611.680969 556.2771 610.26825 557.427612 L 621.1698 557.447388 C 619.193726 553.987671 619.470093 555.760742 619.470093 550.301941 L 619.544861 480.550537 L 675.888733 549.032166 C 679.02063 552.71875 681.578613 557.327026 684.632507 557.519043 L 684.727234 473.953369 C 684.727234 469.172974 684.008301 468.347046 687.346497 466.204285 L 675.520874 466.162476" />
        <path id="path4" fill="currentColor" fill-rule="evenodd" stroke="none"
          d="M 276.797485 510.870911 C 276.640869 503.975525 275.895203 477.051331 277.064972 472.068604 C 291.458557 470.605164 305.178406 478.634033 305.025146 491.774292 C 304.871887 504.902283 291.229523 512.671631 276.797485 510.870911 Z M 262.150879 466.227722 C 265.123993 468.71875 264.965179 469.805481 264.965179 475.067932 L 264.965179 547.515503 C 264.965179 554.256714 265.701355 553.703979 262.238373 557.441528 L 279.029968 557.449585 C 277.307953 553.721924 276.712769 557.409302 276.753448 548.631653 L 276.79303 515.722534 C 293.714447 514.512634 296.320892 525.425476 304.229889 538.380188 C 307.510651 543.753174 310.342773 548.655396 313.752808 553.931519 C 315.732849 556.996155 316.486298 557.756775 321.568756 558.346069 C 325.280273 558.776428 329.064789 558.36438 332.459808 557.498169 C 321.145782 547.043396 323.787872 548.989136 315.994232 535.008423 C 313.342651 530.252502 303.591248 516.117676 299.868011 513.139038 C 301.148102 511.996582 302.89743 511.176514 304.494049 510.104675 C 306.224426 508.942383 306.974548 508.47522 308.69043 507.042603 C 318.768402 498.628906 317.567993 484.721802 310.994232 475.339905 C 303.650879 464.859009 278.114349 465.492065 262.150879 466.227722" />
        <path id="path5" fill="currentColor" fill-rule="evenodd" stroke="none"
          d="M 116.273285 511.422302 L 116.281586 473.305237 C 144.830536 463.44519 158.461044 496.398071 138.191193 509.832336 C 131.383606 514.344116 124.366814 514.158447 116.273285 511.422302 Z M 101.646935 466.222717 C 103.154869 467.59082 104.462967 468.517029 104.462967 471.724243 L 104.464058 551.416504 C 104.464058 555.584656 103.425461 555.336487 101.762741 557.452881 L 118.551865 557.466187 C 116.869583 553.668945 116.224747 557.283691 116.275459 548.63208 C 116.328789 539.457764 115.822495 523.524292 116.389984 515.918274 C 128.142426 519.317749 138.192093 520.260742 147.855988 513.954712 C 156.265549 508.46698 160.931488 497.501526 158.627106 486.720825 C 156.20047 475.369446 150.518143 469.843933 139.111603 467.260376 C 130.740555 465.363892 111.005646 465.821472 101.646935 466.222717" />
        <path id="path6" fill="currentColor" fill-rule="evenodd" stroke="none"
          d="M 403.682709 531.880188 C 402.387573 533.436462 401.65863 535.184082 400.386902 536.917358 C 377.606689 567.972717 335.880981 549.07312 335.859833 511.849182 C 335.844208 483.623413 361.455414 461.928223 387.919281 475.342102 C 397.163544 480.027222 399.010406 485.891541 403.79248 491.833374 L 403.79248 474.768127 C 368.617676 453.400085 321.861328 474.293335 321.84906 511.844604 C 321.837921 547.040283 364.872681 571.196289 403.828125 548.928833 L 403.682709 531.880188" />
        <path id="path7" fill="currentColor" fill-rule="evenodd" stroke="none"
          d="M 562.801941 491.320068 L 576.3479 524.605225 L 547.767456 524.462769 Z M 536.511902 557.470459 C 534.813354 553.714478 534.215393 555.407715 536.350281 550.762817 L 545.319824 530.325439 L 578.769836 530.333923 C 580.291748 534.75061 582.546509 539.617798 584.412964 544.062744 C 589.791809 556.875122 588.254272 552.293213 585.924866 557.456177 L 604.440125 557.452393 C 602.864685 555.479248 602.375305 555.859802 600.979309 552.639771 L 594.14978 535.511475 C 591.063049 527.701172 568.222046 468.981812 566.510071 466.76886 C 564.544495 469.289429 536.111267 536.837158 531.620667 547.210815 C 527.128296 557.588501 528.158142 553.164795 525.694397 557.476379 L 536.511902 557.470459" />
        <path id="path8" fill="currentColor" fill-rule="evenodd" stroke="none"
          d="M 879.337219 491.31842 L 892.890442 524.609497 L 864.290527 524.461731 Z M 853.05011 557.467651 C 851.355896 553.72168 850.709473 555.46405 852.888489 550.760864 L 861.844055 530.316528 L 895.303467 530.337402 C 896.830505 534.75238 899.098633 539.605103 900.954407 544.061646 C 906.270935 556.803711 904.849854 552.244873 902.464661 557.452881 L 921 557.457397 C 919.461853 555.576172 918.854431 555.661072 917.516968 552.638916 C 911.932922 540.00824 885.250061 469.550232 883.048828 466.76886 C 880.914429 469.579224 874.823181 485.057861 872.94519 489.498291 L 848.173828 547.221191 C 843.682068 557.556885 844.596069 553.327393 842.238708 557.473328 L 853.05011 557.467651" />
        <path id="path9" fill="currentColor" fill-rule="evenodd" stroke="none"
          d="M 792.33374 534.237061 C 791.793152 536.536621 791.012939 546.658447 791.146667 549.214172 C 791.313843 552.326904 796.858826 555.373047 799.784607 556.658936 C 808.14386 560.336609 818.119324 560.982544 826.785156 557.59198 C 849.23822 548.810181 845.560181 521.777405 837.730225 515.952881 C 824.009888 505.748474 806.282593 501.570801 802.537598 490.442932 C 802.136353 489.24585 801.913452 488.461792 801.81311 487.268066 C 800.982788 477.322754 808.584167 471.414917 818.409119 471.807251 C 831.037231 472.311584 834.330811 482.368958 837.429321 484.73407 L 837.39032 471.516357 C 830.262573 468.369385 824.366516 463.937256 813.755798 465.37561 C 797.371521 467.597534 786.259277 486.62439 794.512695 501.728516 C 798.185242 508.448914 803.473877 511.687927 810.924805 515.454834 C 817.478455 518.768494 826.372742 522.703857 829.755493 527.231628 C 840.678345 541.86499 823.040222 560.944397 805.786621 550.650269 C 796.959167 545.382385 796.401917 540.363525 792.33374 534.237061" />
        <path id="path10" fill="currentColor" fill-rule="evenodd" stroke="none"
          d="M 412.634918 553.809387 L 409.068298 557.293091 L 462.238434 557.477478 L 463.995575 545.765259 C 458.771576 548.976929 461.775879 551.408081 446.713562 551.896362 C 441.037598 552.080322 427.953644 553.157227 424.755371 549.943237 C 423.742218 546.241211 424.356903 517.070496 424.488953 510.821716 C 429.463867 510.723083 434.469971 510.779907 439.448761 510.777954 C 446.421509 510.774902 447.394012 510.159729 452.115875 513.344971 L 452.348846 501.677246 C 448.051056 504.957153 447.333282 505.131958 440.006073 505.119751 C 434.855072 505.111267 429.629395 505.211853 424.488953 505.074707 L 424.446075 472.375122 C 430.895538 472.150574 437.497711 472.309387 443.907074 472.449219 C 450.28186 472.588562 457.050659 471.866882 459.830414 475.934509 L 460.146942 466.151917 L 409.44223 466.156921 C 412.585358 477.384033 412.685669 461.345337 412.685669 485.099121 C 412.685669 507.249023 413.180511 532.316895 412.634918 553.809387" />
        <path id="path11" fill="currentColor" fill-rule="evenodd" stroke="none"
          d="M 469.498779 466.253906 C 472.618469 468.638 471.731262 471.001404 471.727386 476.182495 L 471.727386 536.369751 C 471.727386 545.881775 472.921631 551.339905 469.214539 557.467041 L 520.302673 557.493164 L 521.63739 546.687256 C 517.348511 553.977478 499.464081 551.891113 489.047272 551.891113 C 485.581482 551.891113 484.197784 551.822754 482.971191 549.187378 L 483.082642 472.92572 C 483.532928 469.371338 485.558655 468.015503 486.992004 466.173645 L 469.498779 466.253906" />
      </g>
    </g>
  </g>
</svg>
