<?xml version="1.0" encoding="UTF-8"?>
<!-- Generated by Pixelmator Pro 3.8 -->
<svg width="1024" height="1024" viewBox="0 0 1024 1024" xmlns="http://www.w3.org/2000/svg">
  <style>:root{color:#000}@media(prefers-color-scheme:dark){:root{color:#fff}}</style>
  <g id="projects">
    <g id="professional">
      <g id="porcelanosa">
        <path id="path5" fill="currentColor" fill-rule="evenodd" stroke="none"
          d="M 384.496521 510.322754 L 384.57074 169.518799 C 639.826477 81.360046 761.696533 375.991455 580.464172 496.106567 C 519.597656 536.446899 456.860596 534.786743 384.496521 510.322754 Z M 253.722519 106.193726 C 267.204956 118.426208 278.900665 126.707458 278.900665 155.382874 L 278.9104 867.9104 C 278.9104 905.177612 269.624298 902.958679 254.758011 921.881287 L 404.869232 922 C 389.827972 888.049438 384.062531 920.368958 384.515961 843.014893 C 384.992798 760.987305 380.466003 618.526733 385.539886 550.520996 C 490.618317 580.915466 580.472168 589.347168 666.876953 532.965088 C 742.066711 483.899048 783.78479 385.857117 763.181335 289.467041 C 741.484741 187.974609 690.67926 138.571289 588.693604 115.471497 C 513.848145 98.515442 337.398651 102.606262 253.722519 106.193726" />
      </g>
    </g>
  </g>
</svg>
