<?xml version="1.0" encoding="UTF-8"?>
<!-- Generated by Pixelmator Pro 3.8 -->
<svg width="1024" height="1024" viewBox="0 0 1024 1024" xmlns="http://www.w3.org/2000/svg">
    <style>:root{color:#000}@media(prefers-color-scheme:dark){:root{color:#fff}}</style>
    <g id="projects">
        <g id="professional">
            <path id="sony-pictures" fill="currentColor" stroke="none" d="M 320.602966 777.697754 L 333.144806 777.697754 L 333.144806 809.36615 L 321.461945 809.36615 C 321.461945 803.708679 313.207764 788.008911 279.190918 786.699341 C 244.492264 785.36731 240.989838 802.416138 252.74733 806.057129 C 267.857941 810.697327 297.749084 809.715088 316.315338 815.705444 C 340.748657 823.617798 347.657288 849.89502 326.278442 863.898376 C 307.08078 876.429443 273.492035 874.966003 249.647858 866.732544 C 245.318848 865.214294 238.320297 861.385376 238.668381 866.38269 L 238.668381 869.378662 L 224.217957 869.378662 L 224.217957 834.714172 L 237.118637 834.714172 C 237.280533 836.704651 235.559906 844.387695 249.997742 852.378357 C 266.727356 861.658813 297.245392 862.059937 309.439117 855.396851 C 316.672424 851.414124 317.68161 838.764404 304.632507 837.05365 C 290.628204 835.190918 268.392212 833.821045 251.79483 830.060547 C 240.033722 827.381104 230.988953 824.002747 225.596802 817.038391 C 221.471954 811.696594 214.611923 790.709961 238.319397 780.048889 C 267.694244 766.8172 308.425446 776.029297 315.633575 782.040222 C 318.533356 784.461548 321.811829 783.694275 320.602966 777.697754 M 427.957611 772.593384 C 460.595612 772.593384 495.303253 788.248169 494.622406 824.266296 C 493.924438 860.262817 459.565765 874.268066 427.957611 874.268066 C 396.334137 874.268066 358.88681 860.262817 358.209534 824.266296 C 357.52774 788.248169 396.003143 772.593384 427.957611 772.593384 M 466.075928 823.617798 C 466.126282 799.770935 449.399384 786.255005 427.390045 786.255005 C 405.378937 786.255005 388.694275 799.770935 388.720367 823.617798 C 388.72757 847.441284 405.981537 861.496887 427.390045 860.928467 C 448.830933 860.313171 466.05072 847.272217 466.075928 823.617798 M 781.929993 793.580933 C 779.336914 796.169556 746.903076 834.652161 746.903076 834.652161 L 746.903076 855.242126 C 746.832031 857.479065 746.996643 857.384644 749.463806 857.384644 L 762.857361 857.384644 L 762.857361 869.188904 L 701.349976 869.188904 L 701.349976 857.384644 C 701.349976 857.384644 713.728088 857.555542 716.308594 857.384644 C 718.881897 857.230835 719.089661 856.630005 719.147217 855.242126 L 719.147217 834.464172 C 719.147217 834.464172 683.13269 794.959839 682.775635 794.421021 C 681.54248 792.668945 678.222656 789.666626 672.335815 789.512756 L 662.187378 789.512756 L 662.187378 777.612305 L 724.380188 777.612305 L 724.380188 789.512756 L 718.01123 789.512756 C 716.656677 789.512756 714.759766 792.37207 717.321411 794.959839 C 719.905457 797.51062 738.463623 819.695313 738.463623 819.695313 L 759.588806 794.773621 C 760.83905 793.146545 760.456726 789.512756 757.869995 789.512756 L 750.146484 789.512756 L 750.146484 777.612305 L 801 777.612305 L 801 789.512756 L 789.157959 789.512756 C 785.307434 789.512756 782.788086 792.721069 781.929993 793.580933 M 544.391174 851.837769 C 544.391174 857.855957 547.516724 857.505188 550.270813 857.431396 L 562.526611 857.431396 L 562.526611 869.187988 L 508.563751 869.187988 L 508.563751 857.856873 L 520.511902 857.856873 C 525.366211 857.505188 526.048889 855.02179 526.214355 852.273132 L 526.214355 796.604858 C 526.344788 792.892944 526.373596 789.816772 519.839111 789.668396 L 508.394623 789.668396 L 508.301086 777.461182 L 553.921631 777.461182 L 615.532471 834.464172 L 615.532471 796.012146 C 615.532471 789.466003 612.281006 789.466003 609.550293 789.11792 L 598.088745 789.11792 L 598.088745 777.461182 L 650.314758 777.461182 L 650.314758 789.297852 L 637.755859 789.297852 C 634.826416 789.297852 633.559998 792.212036 633.380981 794.970642 L 633.380981 869.188904 L 616.272705 869.188904 L 544.391174 805.975281 L 544.391174 851.837769 Z M 222.896667 958.915405 L 222.896667 951.56781 L 229.311493 951.56781 C 231.803848 951.56781 232.373184 950.600952 232.373184 948.458435 L 232.365997 913.322693 C 232.365997 911.186523 231.729187 910.037048 229.244934 910.037048 L 223.205185 910.037048 L 223.205185 902.566284 L 270.968201 902.566284 C 287.303864 902.566284 292.530518 906.397888 292.530518 918.126587 C 292.530518 929.88501 285.201874 934.618774 266.850586 934.618774 L 246.694092 934.618774 L 246.694092 948.500732 C 246.694092 950.62793 247.283234 951.594788 249.793564 951.594788 L 256.352295 951.594788 L 256.223663 958.91626 L 222.896667 958.91626 Z M 246.694992 927.113831 L 264.911377 927.113831 C 272.268799 926.928589 276.585236 925.11438 276.585236 918.534058 C 276.585236 912.412415 272.30658 909.894897 265.880066 909.894897 L 246.694992 909.894897 L 246.694992 927.113831 Z M 323.784302 948.437805 C 323.784302 950.573059 324.370758 951.566895 326.863983 951.566895 L 333.286896 951.566895 L 333.286896 958.870422 L 299.967102 958.870422 L 299.967102 951.536316 L 306.397217 951.536316 C 308.882355 951.536316 309.456207 950.548767 309.456207 948.413452 L 309.456207 913.230042 C 309.456207 911.088501 308.882355 909.692566 306.397217 909.692566 L 299.967102 909.692566 L 299.967102 902.373779 L 333.286011 902.373779 L 333.286011 909.673645 L 326.863098 909.673645 C 324.369843 909.673645 323.783417 911.067749 323.783417 913.177856 L 323.783417 948.437805 Z M 406.783844 941.493225 C 405.628052 950.212341 395.619995 961.724304 377.592468 961.724304 C 360.481506 961.724304 339.243896 954.475708 338.868835 931.312378 C 338.511749 908.655457 358.864319 899.048584 375.61911 899.374146 C 385.573212 899.543274 394.497467 902.95575 396.794647 905.25293 C 398.231964 906.710022 400.113586 906.792725 399.399445 902.521301 L 405.976166 902.521301 L 405.976166 921.879089 L 399.847351 921.879089 C 399.278931 911.752258 387.536713 905.307739 374.921143 906.851196 C 361.613922 908.489075 355.032684 918.637512 355.053375 931.150513 C 355.061462 945.072937 366.52124 954.552185 378.102478 954.552185 C 385.743225 954.526123 397.745361 952.260437 400.195435 941.468872 L 406.783844 941.493225 Z M 415.968048 923.981079 L 415.968048 902.548279 L 483.038483 902.548279 L 483.038483 923.981079 L 476.300751 923.981079 C 476.461761 908.863281 474.999268 910.301453 469.778931 909.710571 L 456.733429 909.685364 L 456.733429 948.5979 C 456.733429 950.765503 457.276672 952.146179 459.752869 952.146179 L 466.175751 952.146179 L 466.175751 959.054749 L 432.848755 959.054749 L 432.848755 952.146179 L 439.24649 952.146179 C 441.739746 952.146179 442.329773 950.765503 442.329773 948.5979 L 442.329773 909.685364 L 429.35083 909.739319 C 423.560211 910.302368 422.803802 909.278809 422.803802 923.981995 L 415.968048 923.981995 Z M 528.140076 961.424805 C 514.696106 961.424805 500.463348 958.346069 500.463348 940.926575 L 500.463348 913.268738 C 500.463348 911.132568 499.881409 909.734802 497.380066 909.734802 L 490.965271 909.734802 L 490.965271 902.39447 L 524.274292 902.39447 L 524.274292 909.684448 L 517.852295 909.684448 C 515.351807 909.684448 514.760864 911.106506 514.760864 913.241699 L 514.760864 941.779236 C 514.760864 943.695068 513.996338 954.889465 528.138306 954.889465 C 543.945923 954.889465 545.449829 948.01416 545.449829 941.710876 L 545.485779 913.268738 C 545.485779 911.132568 544.897583 909.734802 542.412415 909.734802 L 535.998474 909.734802 L 535.998474 902.39447 L 564.275146 902.39447 L 564.275146 909.684448 L 557.8396 909.684448 C 556.254822 909.684448 554.803101 911.31604 554.880493 915.589233 L 555.01355 941.492249 C 555.015381 958.166992 541.888 961.424805 528.140076 961.424805 M 626.32666 931.665039 C 631.9599 932.989868 635.947998 934.177124 636.247498 941.018311 L 636.247498 949.169067 C 636.247498 950.801514 636.530823 953.158081 639.219299 953.158081 C 642.10199 953.158081 641.891479 949.891235 641.737732 946.759399 L 641.737732 943.342407 L 647.693787 943.342407 L 647.693787 947.50769 C 647.693787 957.608521 645.275208 960.440796 636.444458 960.415649 C 628.989929 960.415649 621.828552 958.120239 621.828552 946.866455 L 621.828552 940.696289 C 621.828552 936.525574 618.388245 934.616089 611.949097 934.62146 L 595.571167 934.62146 L 595.571167 948.481812 C 595.571167 950.625183 596.166626 951.595703 598.650879 951.595703 L 605.064758 951.595703 L 605.098938 959.098877 L 571.753967 959.098877 L 571.753967 951.561523 L 578.169678 951.561523 C 580.673767 951.561523 581.244873 950.582031 581.244873 948.43866 L 581.244873 913.298401 C 581.244873 911.178406 580.594604 909.569275 578.111267 909.569275 L 572.071472 909.569275 L 572.071472 902.543762 L 618.76239 902.543762 C 635.127686 902.543762 640.554016 907.818115 640.470398 918.427002 C 640.410095 927.566223 632.836853 930.440857 626.32666 931.665039 M 595.570251 927.089539 L 613.777649 927.089539 C 620.746521 927.089539 624.515198 923.832642 624.515198 918.528625 C 624.515198 913.202148 620.03418 909.874268 614.449585 909.874268 L 595.570251 909.874268 L 595.570251 927.089539 Z M 678.944885 951.734253 L 708.932251 951.859253 C 714.723816 951.298889 715.753601 948.578064 715.753601 937.641785 L 722.192688 937.641785 L 722.192688 959.072754 L 655.062927 959.097046 L 655.062927 951.782837 L 661.471436 951.782837 C 663.954773 951.782837 664.557434 950.801514 664.557434 948.674377 L 664.557434 913.469299 C 664.557434 911.316895 663.954773 909.930908 661.471436 909.930908 L 655.062927 909.930908 L 655.062927 902.567139 L 722.192688 902.567139 L 722.192688 923.959473 L 715.753601 923.959473 C 715.753601 913.057373 714.723816 910.037048 708.932251 909.503662 L 678.944885 909.46228 L 678.944885 926.394226 L 692.898865 926.394226 C 694.712097 926.394226 695.912903 925.695374 695.912903 922.757813 L 695.912903 916.922241 L 702.131592 916.922241 L 702.131592 943.38739 L 695.937134 943.38739 L 695.937134 937.541931 C 695.937134 934.60614 694.735474 933.906433 692.924011 933.906433 L 678.944885 933.899231 L 678.944885 951.734253 Z M 788.095703 903.18866 L 794.671509 903.18866 L 794.671509 922.812683 L 788.549011 922.812683 C 788.549011 919.35614 784.122864 908.662659 766.287842 908.160767 C 748.005798 907.650818 745.59436 917.654419 752.512024 920.793457 C 760.181519 924.258057 776.126831 923.002441 785.847046 926.633545 C 798.647034 931.413147 802.263672 947.300903 791.067444 955.7547 C 781.000854 963.35321 763.389832 962.468201 750.887573 957.472656 C 748.614746 956.565125 744.952209 954.241882 745.122192 957.264038 L 745.122192 959.072754 L 737.564209 959.072754 L 737.564209 938.129272 L 744.328857 938.129272 C 744.305481 939.327332 743.50769 943.982849 751.084595 948.813721 C 762.273621 955.989502 773.17395 956.726135 782.252075 950.981445 C 786.430847 948.35498 788.209045 940.82312 779.733582 939.51532 C 772.370789 938.427917 760.708618 937.591431 752.031677 935.293335 C 745.854309 933.686035 741.107056 931.634399 738.288208 927.434021 C 735.917297 923.910889 731.957947 911.801697 744.953064 905.053223 C 760.343445 897.063477 777.485901 901.772949 785.483704 906.271057 C 787.345581 907.300903 788.727112 907.276672 788.095703 903.18866 M 399.130493 652.951538 L 399.130493 547.993042 C 399.130493 533.102783 386.198334 495.925293 386.198334 456.256287 C 386.198334 418.002197 400.297974 370.874146 400.297974 354.555542 L 400.315979 244.286743 L 360.869171 262.683044 C 360.852081 351.527161 360.852081 431.488403 360.926727 434.899109 C 361.21814 449.009521 372.414398 449.170471 372.211121 462.851013 C 371.997955 478.746826 360.578644 486.427124 360.926727 495.326233 C 361.118317 500.115723 361.118317 582.885071 361.072449 670.64801 L 399.130493 652.951538 Z M 410.402313 647.69519 L 447.488953 630.434021 C 447.488953 604.259399 447.488953 585.773193 447.530334 582.31665 C 448.146454 531.759888 433.791382 497.31134 433.655548 434.662476 C 433.550323 378.211792 448.71579 337.521057 449.882385 290.966858 C 449.957031 287.987915 449.990326 259.55835 449.990326 221.104553 L 410.946472 239.317383 L 410.876312 352.360962 C 411.107483 368.18573 422.076141 402.041565 422.076141 439.588745 C 422.076141 477.128723 410.2323 531.141968 410.46167 544.148804 L 410.402313 647.69519 Z M 458.555695 625.289185 L 498.621307 606.632935 C 495.135956 568.145874 482.203796 491.526978 482.203796 411.795105 C 482.203796 318.282898 500.650452 228.782227 500.650452 206.072205 L 500.650452 197.461853 L 461.219818 215.858093 C 461.228821 255.079163 461.237823 284.120361 461.281891 287.08844 C 461.884521 331.452515 472.042816 368.675903 472.042816 416.746582 C 472.025726 463.995972 459.22937 530.489014 458.635742 578.211548 C 458.589874 581.642029 458.564667 599.692871 458.555695 625.289185 M 257.991089 310.675415 L 223.55777 326.734009 L 223.55777 734.630737 L 257.982086 718.621582 Z M 267.673553 714.119873 L 302.862396 697.731995 L 302.878601 289.72113 L 267.69873 306.143188 Z M 350.700989 267.430298 L 312.521515 285.238342 L 312.547577 693.232056 L 350.613739 675.519409 C 350.75946 584.352051 350.888977 501.402832 350.700989 499.38446 C 349.533508 486.436157 340.311523 490.751709 340.098358 477.283447 C 339.833954 461.106934 350.700989 452.635193 350.700989 442.705322 L 350.700989 267.430298 Z M 547.761353 583.770081 C 542.579712 531.463135 535.023499 455.505249 535.023499 387.727844 C 535.023499 319.068115 542.657043 231.540833 547.793762 175.471436 L 511.610138 192.359314 L 511.610138 199.545837 C 511.527374 222.267517 525.493042 297.837708 525.776367 391.479431 C 526.049744 480.623047 513.795776 560.082397 511.259338 600.763184 L 547.761353 583.770081 Z M 585.604492 363.057983 C 585.986755 301.277161 591.217896 222.370972 596.078491 152.953003 L 564.48291 167.690369 C 568.450317 218.894592 576.651428 291.48584 576.693726 367.508423 C 576.726074 435.643799 572.116455 516.948792 568.746216 573.998596 L 596.738647 560.962036 C 591.252075 498.383423 585.226685 423.739746 585.604492 363.057983 M 647.468079 537.353516 C 641.92749 467.041504 636.507446 388.414185 636.644165 339.712158 C 636.78894 280.554932 642.269287 199.037659 647.065979 129.16095 L 618.139954 142.660706 C 622.461792 204.355164 628.688599 278.989929 629.003418 343.533813 C 629.285828 401.243774 624.449524 479.293701 620.947144 549.708252 L 647.468079 537.353516 Z M 673.169617 525.399902 L 696.210571 514.685791 C 691.673828 452.32843 686.178223 379.104004 686.200684 317.1073 C 686.226746 245.234802 691.291565 183.548401 695.645752 106.500488 L 668.559937 119.134033 C 673.713745 185.609009 679.731018 254.807556 679.674377 319.699585 C 679.632935 380.628601 676.697205 458.293579 673.169617 525.399902 M 745.047546 111.790955 C 745.481934 102.124695 745.615967 92.611267 745.615967 83.18335 L 718.872009 95.655884 C 719.821777 105.751221 720.540466 114.84552 720.876831 123.549316 C 724.189514 213.220093 730.223816 214.861511 730.009766 296.234924 C 729.806519 377.924866 726.947144 428.763977 723.051697 502.197021 L 742.560608 493.110046 C 739.814575 417.649536 735.675354 377.663147 735.625854 294.286743 C 735.585388 225.275269 741.075623 200.253723 745.047546 111.790955 M 778.289978 273.684143 C 778.460022 300.695251 773.371826 397.520142 768.684814 480.954956 L 789.538391 471.236511 C 786.645752 386.113403 782.562317 300.412781 782.261902 271.581238 C 781.990295 243.645508 785.785889 163.708557 790.133789 78.73645 C 790.185059 73.386597 790.24353 67.947693 790.280457 62.348694 L 768.954651 72.298279 C 773.433899 160.707092 778.922302 239.173462 778.289978 273.684143"/>
        </g>
    </g>
</svg>
