<svg height="1024" viewBox="0 0 1024 1024" width="1024" xmlns="http://www.w3.org/2000/svg"><path d="m224.114365 744.276489c-10.660645-4.302063-10.978547-6.425171-10.978547-73.319458v-62.14331l5.03032-5.030274 5.030288-5.030395h92.315384 92.315369v-56.357971-56.358033l-91.709869-.065185c-68.860093-.048889-92.52005-.687195-94.961564-2.561707-6.654571-5.109253-8.019928-11.423156-8.019928-37.087036 0-24.144653.287964-25.972656 4.944657-31.387817l4.944641-5.750122 92.401031-.57312 92.401032-.57306v-59.371398c0-56.383912.203613-59.574952 4.046631-63.417969 2.225677-2.225647 6.145111-4.559021 8.709869-5.185303 2.56482-.626221 89.357178-.880249 192.872009-.564453l188.20868.574158 5.028686 5.846618 5.028565 5.846619-.595337 63.503418-.595337 63.503357-4.838135 3.915466c-4.685913 3.792175-10.896057 3.915405-197.253174 3.915405h-192.414947v20.493897 20.493774h191.774994 191.774902l5.99054 5.99054 5.990478 5.990478v60.749146c0 61.82373-.512146 66.434204-8.019958 72.198486-2.501404 1.920532-47.582032 2.511597-195.381287 2.561768l-192.129669.065124v59.566834c0 34.935791-.829499 61.116821-2.006104 63.315307-1.103393 2.061707-4.92984 4.767701-8.503326 6.013428-7.852356 2.737366-174.664139 2.951416-181.400894.232788z" fill="#fc4e4e"/></svg>