<svg height="1024" viewBox="0 0 1024 1024" width="1024" xmlns="http://www.w3.org/2000/svg"><path d="m681.453186 569.005859v-196.502929c0-49.808045-34.797424-56.631043-72.324036-56.631043v525.372376h-194.455993s-1.364594-397.099671-1.364594-468.741333c0-49.125733-30.703583-59.360291-72.323974-59.360291v528.101624h-195.820618c1.364609-66.865601 0-400.51117 0-439.402344 0-117.355896-96.204559-108.486023-96.204559-108.486023l133.731155-117.355896h51.172638c30.703567 0 108.485977 23.880554 108.485977 92.79303l105.074494-92.79303h53.219543c42.985016 0 108.485931 27.292114 108.485931 94.839966l107.803711-94.839966h50.490357c38.891235 0 108.486023 23.198303 108.486023 94.839966l2.046936 298.165893v51.85492c0 117.355896 96.204468 108.486023 96.204468 108.486023l-133.73108 117.355835c-13.646057 11.599182-158.976379-2.046875-158.976379-148.741699z" fill="#dc0019"/></svg>