<svg height="1024" viewBox="0 0 1024 1024" width="1024" xmlns="http://www.w3.org/2000/svg"><path d="m253.776245 278.569031c-38.228866.608948-108.800018 19.46405-141.029541 151.111145-14.051086 57.354553-19.46402 117.144897-7.442787 188.30249 11.073959 65.631897 30.718407 122.287231 43.957542 153.501831 4.555893 10.758301 11.637818 21.96759 17.095871 28.891602 15.69751 19.847412 41.860031 18.584411 52.843781 13.171447 11.97612-5.886535 25.734009-20.140625 20.749588-52.640808-2.413269-15.697509-9.359879-38.679931-13.261688-51.445434-11.998673-39.176148-27.966843-86.47168-29.365174-120.144593-1.871994-45.040161 15.900498-50.949279 27.696183-53.543029 19.847427-4.352845 36.469665 17.411621 52.279968 44.724426 18.855011 32.590393 51.174774 90.305847 77.540283 134.398682 23.794373 39.807678 67.706818 82.434509 138.232849 79.502502 71.901856-2.977112 124.903504-30.40271 152.216248-116.784058 20.433899-64.616943 34.349609-112.904846 56.768249-162.343017 25.779053-56.858399 60.151245-87.306153 89.087891-77.991394 26.884216 8.6156 33.582763 34.890869 33.898437 73.503174.293274 34.146606-3.653686 71.811584-6.74353 99.462707-1.127747 10.036499-3.13501 30.222229-2.300537 41.454102 1.62384 22.035156 11.164185 44.047729 35.97345 47.566162 26.433227 3.743896 47.656433-17.366577 56.114135-42.920044 3.338013-10.059082 6.202332-25.485962 7.736023-36.402039 7.758484-55.189392 9.78833-92.290588 6.292542-148.765564-4.104859-66.03778-17.028259-126.256714-39.55957-178.378784-21.561585-49.844116-56.204285-81.780456-100.63556-84.59967-49.212585-3.089905-105.642456 29.545593-135.255676 92.854431-27.290222 58.346924-49.122436 118.272644-62.361572 148.83313-13.442139 31.011657-33.176758 50.114807-63.534302 53.317444-37.123749 3.901855-69.082611-23.027466-92.516113-61.436829-20.411286-33.492493-60.895538-97.229858-82.547302-118.656067-20.321045-20.140625-43.551575-45.310791-91.929688-44.543945z" fill="#00a9e0"/></svg>