<?xml version="1.0" encoding="UTF-8"?>
<!-- Generated by Pixelmator Pro 3.8 -->
<svg width="1024" height="1024" viewBox="0 0 1024 1024" xmlns="http://www.w3.org/2000/svg">
    <style>:root{color:#000}@media(prefers-color-scheme:dark){:root{color:#fff}}</style>
    <g id="projects">
        <g id="professional">
            <g id="grupo-gmp">
                <path id="Path-copy-5" fill="#007078" stroke="none" d="M 407.820068 143.664429 L 491.1362 143.664429 L 491.1362 476.928711 L 407.820068 476.928711 Z M 518.903564 185.316101 L 602.206909 185.316101 L 602.206909 518.5802 L 518.903564 518.5802 Z M 629.97467 102 L 713.290771 102 L 713.290771 435.26416 L 629.97467 435.26416 Z"/>
                <path id="Path-copy-2" fill="currentColor" stroke="none" d="M 812.25415 643.555542 L 746.225403 643.555542 L 746.225403 922.979614 L 812.266907 922.979614 L 812.25415 812.306824 C 826.407593 828.643799 848.537109 836.26001 869.947144 836.26001 C 925.097412 836.26001 963.191284 791.269104 963.191284 737.570313 C 963.191284 684.231079 924.724915 637.788818 869.215332 637.776001 C 847.44519 637.776001 824.95636 646.483887 812.985962 664.991455 L 812.25415 664.991455 Z M 852.531494 695.109497 C 879.37439 695.109497 894.979126 714.336304 894.979126 737.197754 C 894.979126 760.791382 879.387207 778.926514 852.531494 778.926514 C 825.688538 778.926514 810.083496 760.791382 810.083496 737.197754 C 810.083496 714.336304 825.675415 695.109497 852.531494 695.109497 M 473.831879 643.555542 L 473.831879 666.776611 L 474.564087 666.776611 C 490.156036 646.098633 509.383026 637.390686 533.335876 637.390686 C 560.179138 637.390686 583.400208 648.269165 596.834656 672.954407 C 609.524048 649.720459 634.55603 637.390686 659.96051 637.390686 C 707.121948 637.390686 723.458862 668.240845 723.458862 711.04834 L 723.458862 829.709839 L 657.430115 829.709839 L 657.417358 740.806885 C 657.417358 721.580078 658.149536 689.997803 630.214722 689.997803 C 599.737122 689.997803 598.645569 718.664551 598.645569 740.806885 L 598.645569 829.697021 L 532.616821 829.697021 L 532.616821 740.806885 C 532.616821 720.115906 532.604065 688.546509 503.217957 688.546509 C 473.831879 688.546509 473.831879 720.115906 473.831879 740.794006 L 473.831879 829.697021 L 407.803162 829.697021 L 407.803162 702.096436 L 381.692444 702.096436 C 370.556946 779.119141 310.295197 836.26001 226.863571 836.26001 C 134.287277 836.26001 60.603855 756.732849 60.603855 666.006104 C 60.603855 571.747314 136.200943 494.159546 230.832001 494.159546 C 281.641327 494.159546 326.901886 513.977051 364.456238 557.799194 C 367.80835 561.716553 372.676056 568.125488 372.676056 568.125488 L 325.232056 613.090698 C 325.232056 613.090698 319.401123 605.114868 315.188477 600.414124 C 290.888702 573.339966 264.199677 557.336914 232.424728 557.336914 C 173.383163 557.336914 126.953545 605.140503 126.953545 664.811646 C 126.953545 720.886475 173.344421 773.09552 229.252457 773.09552 C 264.328003 773.09552 312.645325 741.590271 310.821564 702.096436 L 235.520233 702.096436 L 235.520233 643.555542 Z"/>
            </g>
        </g>
    </g>
</svg>
