<svg height="1024" viewBox="0 0 1024 1024" width="1024" xmlns="http://www.w3.org/2000/svg" xmlns:xlink="http://www.w3.org/1999/xlink"><clipPath id="a"><path d="m218.7453 279.090695h585.302343v474.722785h-585.302343zm0 0"/></clipPath><clipPath id="b"><path d="m160.033315 394.409636h65.326285v231.189928h-65.326285zm0 0"/></clipPath><clipPath id="c"><path d="m394.386622 861.241229h234.0197v59.758771h-234.0197zm0 0"/></clipPath><clipPath id="d"><path d="m388.289966 803.679553h244.004457v57.561676h-244.004457zm0 0"/></clipPath><clipPath id="e"><path d="m277.457279 801.482458h116.929343v59.758771h-116.929343zm0 0"/></clipPath><clipPath id="f"><path d="m628.406322 801.482458h116.929342v59.758771h-116.929342zm0 0"/></clipPath><clipPath id="g"><path d="m272.798514 751.892458h472.790255v51.902127h-472.790255zm0 0"/></clipPath><clipPath id="h"><path d="m745.335664 743.920788h58.711991v59.758765h-58.711991zm0 0"/></clipPath><clipPath id="i"><path d="m218.7453 743.920788h58.711979v59.758765h-58.711979zm0 0"/></clipPath><clipPath id="j"><path d="m160.033315 627.106478h58.711985v116.81431h-58.711985zm0 0"/></clipPath><clipPath id="k"><path d="m801.839077 627.106478h58.711991v116.81431h-58.711991zm0 0"/></clipPath><clipPath id="l"><path d="m804.047655 395.91655h65.314784v231.189928h-65.314784zm0 0"/></clipPath><clipPath id="m"><path d="m862.265006 392.902722h58.711991v234.203756h-58.711991zm0 0"/></clipPath><clipPath id="n"><path d="m102.000011 392.902722h58.700483v234.203756h-58.700483zm0 0"/></clipPath><clipPath id="o"><path d="m392.166523 102h234.03122v59.758777h-234.03122zm0 0"/></clipPath><clipPath id="p"><path d="m626.186223 161.758777h116.929342v59.770248h-116.929342zm0 0"/></clipPath><clipPath id="q"><path d="m275.237181 161.758777h116.917846v59.770248h-116.917846zm0 0"/></clipPath><clipPath id="r"><path d="m272.798514 221.540545h472.790255v57.55015h-472.790255zm0 0"/></clipPath><clipPath id="s"><path d="m216.513694 219.320447h58.700483v59.758776h-58.700483zm0 0"/></clipPath><clipPath id="t"><path d="m743.104094 219.320447h58.700471v59.758776h-58.700471zm0 0"/></clipPath><clipPath id="u"><path d="m801.804565 279.079223h58.711991v116.814286h-58.711991zm0 0"/></clipPath><clipPath id="v"><path d="m160.010305 279.079223h58.700483v116.814286h-58.700483zm0 0"/></clipPath><clipPath id="w"><path d="m335.91619 685.507885h348.75196v59.770273h-348.75196zm0 0"/></clipPath><clipPath id="x"><path d="m686.876777 627.106478h58.711992v59.758777h-58.711992zm0 0"/></clipPath><clipPath id="y"><path d="m277.204211 627.106478h58.711979v59.758777h-58.711979zm0 0"/></clipPath><clipPath id="z"><path d="m450.602418 453.673772h121.8067v119.011392h-121.8067zm0 0"/></clipPath><clipPath id="A"><path d="m511.4885 453.673772 60.874586 59.505696-60.874586 59.505696-60.886082-59.505696zm0 0"/></clipPath><clipPath id="B"><path d="m335.91619 285.854576h105.0236v101.446107h-105.0236zm0 0"/></clipPath><clipPath id="C"><path d="m388.289966 285.854576c-28.918883 0-52.373776 22.707147-52.373776 50.717293 0 28.021618 23.454893 50.728814 52.373776 50.728814 28.93038 0 52.385272-22.707196 52.385272-50.728814 0-28.010146-23.454892-50.717293-52.385272-50.717293zm0 0"/></clipPath><clipPath id="D"><path d="m335.927711 285.854576h105.391688v101.434586h-105.391688zm0 0"/></clipPath><clipPath id="E"><path d="m388.289966 285.854576c-28.918883 0-52.362255 22.707147-52.362255 50.717293s23.443372 50.717293 52.362255 50.717293c28.918859 0 52.373752-22.707147 52.373752-50.717293s-23.454893-50.717293-52.373752-50.717293zm0 0"/></clipPath><clipPath id="F"><path d="m357.829657 307.066329h61.081634v59.01108h-61.081634zm0 0"/></clipPath><clipPath id="G"><path d="m388.301462 307.066329c-16.829084 0-30.471805 13.217104-30.471805 29.50554 0 16.299956 13.642721 29.50554 30.471805 29.50554 16.817589 0 30.460309-13.205584 30.460309-29.50554 0-16.288436-13.64272-29.50554-30.460309-29.50554zm0 0"/></clipPath><clipPath id="H"><path d="m579.920647 285.854576h105.01208v101.446107h-105.01208zm0 0"/></clipPath><clipPath id="I"><path d="m632.294423 285.854576c-28.930403 0-52.373776 22.707147-52.373776 50.717293 0 28.021618 23.443373 50.728814 52.373776 50.728814 28.930355 0 52.373727-22.707196 52.373727-50.728814 0-28.010146-23.443372-50.717293-52.373727-50.717293zm0 0"/></clipPath><clipPath id="J"><path d="m579.920647 285.854576h105.403184v101.434586h-105.403184zm0 0"/></clipPath><clipPath id="K"><path d="m632.294423 285.854576c-28.930403 0-52.373776 22.707147-52.373776 50.717293s23.443373 50.717293 52.373776 50.717293c28.918835 0 52.362256-22.707147 52.362256-50.717293s-23.443421-50.717293-52.362256-50.717293zm0 0"/></clipPath><clipPath id="L"><path d="m601.822594 307.066329h61.09313v59.01108h-61.09313zm0 0"/></clipPath><clipPath id="M"><path d="m632.294423 307.066329c-16.829109 0-30.471829 13.217104-30.471829 29.50554 0 16.299956 13.64272 29.50554 30.471829 29.50554 16.82906 0 30.460261-13.205584 30.460261-29.50554 0-16.288436-13.631201-29.50554-30.460261-29.50554zm0 0"/></clipPath><clipPath id="N"><path d="m392.178019 161.781768h234.031245v59.758777h-234.031245zm0 0"/></clipPath><g clip-path="url(#a)"><path d="m218.7453 279.090698h585.992554v474.722779h-585.992554zm0 0" fill="#fefe00"/></g><g clip-path="url(#b)"><path d="m160.03331 394.409607h65.326294v231.166931h-65.326294zm0 0" fill="#fefe00"/></g><g clip-path="url(#c)"><path d="m394.386627 861.241211h234.134735v59.758789h-234.134735zm0 0"/></g><g clip-path="url(#d)"><path d="m388.289978 803.679565h243.935425v57.561646h-243.935425zm0 0" fill="#fefe00"/></g><g clip-path="url(#e)"><path d="m277.457275 801.482422h116.952362v59.758789h-116.952362zm0 0"/></g><g clip-path="url(#f)"><path d="m628.406311 801.482422h116.952393v59.758789h-116.952393zm0 0"/></g><g clip-path="url(#g)"><path d="m272.798523 751.892456h472.824768v51.9021h-472.824768zm0 0" fill="#fefe00"/></g><g clip-path="url(#h)"><path d="m745.335693 743.920776h58.711975v59.862305h-58.711975zm0 0"/></g><g clip-path="url(#i)"><path d="m218.7453 743.920776h58.711975v59.862305h-58.711975zm0 0"/></g><g clip-path="url(#j)"><path d="m160.03331 627.106445h58.71199v116.72229h-58.71199zm0 0"/></g><g clip-path="url(#k)"><path d="m801.83905 627.106445h58.712036v116.72229h-58.712036zm0 0"/></g><g clip-path="url(#l)"><path d="m804.047668 395.916565h65.314759v231.155395h-65.314759zm0 0" fill="#fefe00"/></g><g clip-path="url(#m)"><path d="m862.265015 392.90271h58.711975v234.14624h-58.711975zm0 0"/></g><g clip-path="url(#n)"><path d="m102.000008 392.90271h58.700477v234.14624h-58.700477zm0 0"/></g><g clip-path="url(#o)"><path d="m626.197754 161.758789h-234.134766v-59.758789h234.134766zm0 0"/></g><g clip-path="url(#p)"><path d="m743.11554 221.529053h-116.952332v-59.770264h116.952332zm0 0"/></g><g clip-path="url(#q)"><path d="m392.155029 221.529053h-116.952362v-59.770264h116.952362zm0 0"/></g><g clip-path="url(#r)"><path d="m272.798523 221.540527h472.801697v57.550171h-472.801697zm0 0" fill="#fefe00"/></g><g clip-path="url(#s)"><path d="m275.214172 279.079224h-58.700485v-59.862305h58.700485zm0 0"/></g><g clip-path="url(#t)"><path d="m801.804565 279.079224h-58.7005v-59.862305h58.7005zm0 0"/></g><g clip-path="url(#u)"><path d="m860.516541 395.893494h-58.711976v-116.733765h58.711976zm0 0"/></g><g clip-path="url(#v)"><path d="m218.710785 395.893494h-58.700485v-116.733765h58.700485zm0 0"/></g><g clip-path="url(#w)"><path d="m335.916199 685.507874h348.751953v59.770324h-348.751953zm0 0"/></g><g clip-path="url(#x)"><path d="m686.87677 627.106445h58.711975v59.85083h-58.711975zm0 0"/></g><g clip-path="url(#y)"><path d="m277.204224 627.106445h58.711975v59.85083h-58.711975zm0 0"/></g><g clip-path="url(#z)"><g clip-path="url(#A)"><path d="m450.602417 453.673767h121.806702v119.011414h-121.806702zm0 0"/></g></g><g clip-path="url(#B)"><g clip-path="url(#C)"><path d="m335.916199 285.854553h104.621002v101.446106h-104.621002zm0 0" fill="#fff"/></g></g><g clip-path="url(#D)"><g clip-path="url(#E)"><path d="m388.289948 285.854553c-28.918854 0-52.362275 22.707154-52.362275 50.717346 0 28.010071 23.443421 50.717286 52.362275 50.717286 28.918884 0 52.373748-22.707215 52.373748-50.717286 0-28.010192-23.454864-50.717346-52.373748-50.717346zm0 0" fill="none" stroke="#000" stroke-width="22.0515"/></g></g><g clip-path="url(#F)"><g clip-path="url(#G)"><path d="m357.829651 307.066345h60.851562v59.011048h-60.851562zm0 0" fill="#08a504"/></g></g><g clip-path="url(#H)"><g clip-path="url(#I)"><path d="m579.920654 285.854553h104.620972v101.446106h-104.620972zm0 0" fill="#fff"/></g></g><g clip-path="url(#J)"><g clip-path="url(#K)"><path d="m632.294373 285.854553c-28.930359 0-52.373719 22.707154-52.373719 50.717346 0 28.010071 23.44336 50.717286 52.373719 50.717286 28.918884 0 52.362243-22.707215 52.362243-50.717286 0-28.010192-23.443359-50.717346-52.362243-50.717346zm0 0" fill="none" stroke="#000" stroke-width="22.0515"/></g></g><g clip-path="url(#L)"><g clip-path="url(#M)"><path d="m601.822571 307.066345h60.863098v59.011048h-60.863098zm0 0" fill="#08a504"/></g></g><path d="m323.72287 358.531372c-17.174164-28.803833-11.238556-51.672058 17.829834-68.59314" fill="none" stroke="#888901" stroke-linecap="round" stroke-width="17.641197"/><path d="m686.221069 291.882202c20.751709 20.245484 24.122132 43.090759 10.122803 68.547119" fill="none" stroke="#888901" stroke-linecap="round" stroke-width="17.641197"/><g clip-path="url(#N)"><path d="m392.178009 161.781738h234.134735v59.758789h-234.134735zm0 0" fill="#fefe00"/></g></svg>