<svg height="1024" viewBox="0 0 1024 1024" width="1024" xmlns="http://www.w3.org/2000/svg"><path d="m922 512c0 226.436768-183.563293 410-410 410-226.436768 0-410-183.563232-410-410s183.563232-410 410-410c226.436707 0 410 183.563232 410 410z" fill="#d1322a"/><path d="m663.717041 726.970581c35.920349-12.063599 59.919617-45.880249 59.919617-84.430908 0-24.199036-7.849366-43.141541-26.697815-64.428833-42.966431-48.525818-62.432617-95.328064-62.432617-150.105591 0-19.358704 2.705566-41.601135 7.224487-59.393066 8.608337-33.892517.823303-64.304566-22.53363-88.026673-35.697571-36.255798-93.172974-36.763916-129.614808-1.145996-12.543823 12.260254-18.346923 22.401123-26.20639 45.795471-13.477905 40.118164-30.093597 68.460144-54.37323 92.746521-24.564819 24.571595-54.576477 42.46814-91.989746 54.855347-30.622376 10.138733-41.972382 17.451538-55.988159 36.072815-26.337998 34.992432-22.929535 85.766418 7.816742 116.442017 24.029113 23.973999 55.830871 32.173461 91.437164 23.575378 42.372742-10.232056 91.629028-8.019409 128.239075 5.760559 27.571624 10.37793 48.783905 23.468384 75.575409 46.638672 28.202392 24.390503 48.008361 32.161987 76.652221 30.076782 6.863037-.499634 17.200257-2.494263 22.97168-4.432495zm-177.167328-123.789001c-31.651214-8.328919-55.519897-31.518128-64.866455-63.019837-4.398376-14.824463-3.75238-35.199035 1.62384-51.214538 9.214722-27.450196 26.397553-45.432068 53.438263-55.923401 15.415863-5.981018 45.170044-5.985718 60.608643-.008911 22.369812 8.659301 38.771789 23.187744 48.942078 43.35144 7.170654 14.216736 9.593505 27.592896 8.564025 47.281738-.781616 14.948487-1.59259 18.050049-8.213134 31.410889-18.619507 37.575073-61.619446 58.247925-100.09726 48.12262z" fill="#fff"/></svg>