<?xml version="1.0" encoding="UTF-8"?>
<!-- Generated by Pixelmator Pro 3.8 -->
<svg width="1024" height="1024" viewBox="0 0 1024 1024" xmlns="http://www.w3.org/2000/svg">
    <style>:root{color:#000}@media(prefers-color-scheme:dark){:root{color:#fff}}</style>
    <g id="projects">
        <g id="professional">
            <path id="aramon" fill="currentColor" stroke="none" d="M 616.489807 716.567627 C 607.43335 737.455933 596.989197 753.158691 588.809204 763.82196 C 577.634583 778.356201 566.314026 793.182495 546.009949 804.64917 C 530.891479 813.194397 516.649414 816.627075 507.008667 818.160889 L 505.767059 818.160889 C 496.126312 816.627075 481.884247 813.194397 466.765778 804.64917 C 446.461731 793.182495 435.068085 778.356201 423.966583 763.82196 C 415.78656 753.158691 405.342377 737.455933 396.285889 716.567627 C 387.740662 693.926392 366.195007 678.807861 342.166107 678.588806 C 317.699005 678.36969 295.496033 693.561218 286.877747 716.567627 C 283.225952 726.354431 278.259491 737.602051 271.321075 749.579956 C 262.483704 764.844482 252.915955 776.895386 244.5168 786.098022 C 219.173264 811.29541 182.728226 820.132813 152.710388 808.300964 C 113.563011 792.890381 90.556625 744.467407 105.529037 697.213013 C 127.2938 627.317383 151.76091 554.646484 179.222504 479.784424 C 206.172836 406.237061 233.926559 336.341431 261.972443 270.024597 C 279.355042 228.686218 320.839569 203.780823 362.68927 208.309082 C 397.527527 212.106995 427.910553 235.916748 441.787384 269.659485 C 443.832428 276.744019 446.972992 286.895996 451.501221 299.019958 C 460.48465 323.121948 465.232025 335.31897 475.749207 344.302429 C 480.642639 348.465454 489.991272 354.892639 505.767059 357.302795 L 507.008667 357.302795 C 522.784485 354.892639 532.133118 348.538452 537.02655 344.302429 C 547.543762 335.31897 552.218079 323.121948 561.274536 299.019958 C 565.802795 286.968994 568.943359 276.744019 570.988342 269.659485 C 584.865234 235.916748 615.24823 212.179993 650.086487 208.309082 C 691.936157 203.707825 733.493774 228.613159 750.949402 269.951599 C 778.995239 336.268372 806.748962 406.237061 833.699341 479.711365 C 861.160889 554.573425 885.628052 627.244385 907.392761 697.140015 C 922.365173 744.394409 899.358826 792.817322 860.211426 808.227905 C 830.193604 820.059814 793.748535 811.29541 768.405029 786.024963 C 760.005859 776.822449 750.511169 764.771484 741.600769 749.506836 C 734.662292 737.528931 729.695862 726.281372 726.044006 716.494568 C 717.352783 693.488159 695.14978 678.296631 670.755676 678.515747 C 646.726807 678.734863 625.108093 693.853394 616.635925 716.494568 L 616.489807 716.567627 Z M 304.04126 511.33606 C 304.04126 537.595215 325.328552 558.882568 351.587769 558.882568 C 377.847015 558.882568 399.134308 537.595215 399.134308 511.33606 C 399.134308 485.076843 377.847015 463.78949 351.587769 463.78949 C 325.328552 463.78949 304.04126 485.076843 304.04126 511.33606 Z M 863.571106 356.499451 C 895.840515 356.499451 922 330.339905 922 298.070557 C 922 265.801086 895.840515 239.641602 863.571106 239.641602 C 831.301697 239.641602 805.142151 265.801086 805.142151 298.070557 C 805.142151 330.339905 831.301697 356.499451 863.571106 356.499451 Z"/>
        </g>
    </g>
</svg>
