<svg height="1024" viewBox="0 0 1024 1024" width="1024" xmlns="http://www.w3.org/2000/svg"><path d="m584.110352 102.923584c-5.946045 0-11.467408 1.27417-16.564087 2.973022 10.830322 7.220215 16.776428 16.776551 19.749572 27.606934.212708 1.48645.637024 2.548279.849732 4.034729.212707 1.274231.424377 2.548401.424377 3.822571.849915 18.687683-4.884338 21.023681-8.919189 32.066406-6.158447 14.228211-4.459656 29.518128 2.973083 41.835144.637085 1.486389 1.486512 3.185303 2.54834 4.671936-8.069763-53.727295 36.738403-61.796997 45.020325-78.573486.637146-14.652832-11.467285-24.421509-21.02356-31.21698-9.13153-5.521423-17.413635-7.220276-25.058593-7.220276zm67.5307 12.104492c-.849792 4.884278-.212768 3.610169-.424377 6.158508-.212708 1.698853-.212708 3.82251-.424378 5.521424-.424438 1.698791-.849792 3.397644-1.486633 5.096618-.424316 1.698914-1.061768 3.397767-1.698791 5.096619-.849854 1.698914-1.486573 3.185425-2.335999 4.884277-.637085.849793-1.061768 1.698853-1.698853 2.548401-.424438.637085-.849853 1.274109-1.274108 1.911194-1.061768 1.486572-2.12378 2.973084-3.185425 4.247193-1.274231 1.274231-2.33606 2.760681-3.822632 3.82257v.212647c-1.27417 1.061828-2.548279 2.335998-4.03479 3.397766-4.459656 3.397705-9.556213 5.946045-14.228149 9.131531-1.486512 1.061767-2.973084 1.911255-4.247254 3.185425-1.48645 1.061767-2.760681 2.123535-4.034729 3.397644-1.486694 1.274231-2.548462 2.548461-3.822632 4.034973-1.061767 1.27417-2.335876 2.760681-3.185302 4.247192-1.06189 1.486511-2.123658 2.973023-2.973145 4.459473-.849731 1.698913-1.48645 3.185486-2.335938 4.884277-.637084 1.698914-1.274169 3.185425-1.698913 4.884338-.637085 1.911316-1.061707 3.610108-1.486511 5.309083-.212708.849792-.212708 1.911193-.424378 2.760681-.212707.849731-.212707 1.698791-.424377 2.548278 0 1.698853-.212708 3.610169-.212708 5.30896 0 1.274231 0 2.548401.212708 3.822571 0 1.698853.212768 3.397705.637085 5.30896.212707 1.698853.637024 3.397766 1.061828 5.096741.637146 1.698852 1.061829 3.397766 1.698853 5.096558.424499 1.061889 1.061829 2.123657 1.486633 2.973083l-48.843017-18.900085c-8.282105-2.335999-16.351746-4.459473-24.633912-6.370789-4.459472-1.061829-8.919006-2.123657-13.378662-3.185486-12.741668-2.548279-25.695526-4.459472-38.649597-5.733581-.424347 0-.637024-.212647-1.061737-.212647-12.74173-1.274231-25.270965-1.911316-38.012573-1.911316-9.343933 0-18.687805.424378-27.819306 1.061768-12.95404.849792-25.908081 2.548401-38.861968 4.671936-3.185456.424438-6.37085 1.061889-9.556336 1.698974-6.58313 1.274048-12.953918 2.760621-19.112366 4.247193-3.185455.849792-6.370849 1.698852-9.556335 2.548279-3.185333 1.274109-6.158356 2.760742-9.13147 4.034851-2.335968 1.061767-4.671875 2.123596-7.007843 3.185425-.424438.212646-.849792.212646-1.061798.424438-2.123657 1.061768-4.034912 1.911194-5.946045 2.973083-.637115.212647-1.06189.424378-1.486603.637085-2.335937 1.061768-4.671905 2.335877-6.58313 3.397706-1.486572.637084-2.973053 1.486511-4.247222 2.123657-.637116.424377-1.486603.849731-1.911286 1.061706-1.911224 1.061829-3.822479 2.123596-5.521362 3.185486-1.911255 1.061768-3.610108 2.123535-5.09671 3.185303-1.486451 1.061828-2.972992 1.911316-4.247193 2.973022-.212738.212769-.424377.212769-.637085.424439-1.27417.849792-2.76065 1.911194-4.03482 2.973144 0 0-.212708.212708-.424378.424378-1.061798.849792-2.123657 1.698852-3.185455 2.548218-.424377.212707-.849762.637085-1.27417.849792-1.061768.849793-2.123535 1.911255-3.185333 2.760742-.212708.424439-.637055.637085-.849762.849854-1.27417 1.274109-2.54834 2.335876-3.82251 3.610107-.212738 0-.212738.212708-.424377.424378-1.27417 1.061767-2.548355 2.335937-3.822541 3.610107-.212722.212708-.212722.424377-.424392.424377-1.061753 1.061768-2.123551 2.123658-3.18544 3.397767-.424363.424316-1.061783.849731-1.486451 1.274108-1.061782 1.274231-2.335968 2.54834-3.610107 3.82251-.212723.424439-.637116.637146-.849793 1.061829-1.698883 1.698913-3.185455 3.397827-4.884307 5.09668-.212723.212768-.424378.424438-.637085.637084-3.397843 3.610169-7.00795 7.220276-10.830368 10.40564-3.822525 3.397705-7.857346 6.583191-11.892258 9.343872-4.247208 2.973084-8.282028 5.521301-12.741623 8.069641-4.247208 2.335938-8.706818 4.459595-13.378708 6.370911-4.45961 1.911194-9.131515 3.610168-13.803421 5.096558-8.919205 1.911254-18.050705 5.521362-25.90805 6.158508-1.698853 0-3.610123.424377-5.308991.636963-1.91124.424438-3.610107.849853-5.308975 1.274292-1.698853.637024-3.397827 1.27417-5.09668 1.911133-1.698883.637146-3.397735 1.486633-5.096603 2.336059-1.486572 1.061707-3.185425 1.911194-4.672005 2.973023-1.486473 1.061767-2.973045 2.335937-4.247223 3.610107-1.48645 1.061951-2.97303 2.548401-4.247207 3.82251-1.27417 1.486633-2.54834 2.760803-3.610116 4.247192-1.061775 1.698853-2.335945 3.185486-3.18544 4.8844-1.061767 1.486572-2.12355 3.185363-2.97303 4.884094-.849785 1.911438-1.69886 3.61029-2.335952 5.521484-.637078 1.698975-1.27417 3.610108-1.911255 5.521424-.424393 1.698852-.849778 3.397705-1.061776 5.096557 0 .212708-.212692.424439-.212692.637085-.424392 1.911377-.424392 4.459717-.637085 5.734009-.212684 1.486389-.424385 2.760498-.424385 4.247131 0 .849732 0 1.911133.212685 2.760559.212677 1.486695.424377 2.760743.849777 4.034973.424393 1.273987.849785 2.548218 1.486466 3.822449v.212708c.637084 1.274231 1.486572 2.548401 2.335952 3.822571.849785 1.274169 1.698967 2.548339 2.760735 3.822448 1.061783 1.061829 2.335953 2.335999 3.61013 3.397766 1.27417 1.27417 2.548348 2.335938 4.034813 3.397705 5.096695 4.459656 6.370873 5.94629 12.954033 9.343873 1.061783.637146 2.123657 1.061889 3.397827 1.698974.212677 0 .424393.212708.637085.212708 0 .424377 0 .637085.212677 1.06195.212692 1.698792.637085 3.397644 1.061768 5.096558.424408 1.911194 1.061905 3.610168 1.69899 5.096619.637069 1.274231 1.061767 2.548339 1.698852 3.82257.212677.424378.424393.849793.637085 1.061768.849777 1.698853 1.698868 3.185486 2.548248 4.671936 1.061875 1.486511 2.123658 2.972961 3.18544 4.459595 1.061768 1.274109 2.335938 2.760681 3.610123 4.03479 1.27417 1.27417 2.54834 2.335998 4.034912 3.610107 0 0 .212723.212769.424393.212769 1.27417 1.061889 2.54834 2.123657 3.82251 2.973022 1.48648 1.061829 2.973037 1.911255 4.67189 2.760742 1.486587.849732 3.18544 1.698792 4.884308 2.335999 1.27417.637085 2.760635 1.061829 4.247223 1.48645.212707.212769.424377.212769.849777.4245.849777.212707 1.911148.424316 2.760635.636963-.637085 11.467529-.849777 22.297851.849793 26.120422 1.911163 4.247192 11.25505-8.706787 20.598953-23.572022-1.27417 14.652894-2.123657 31.854004 0 36.950745 2.335953 5.308899 15.077591-11.255249 26.120346-29.518188 150.563583-34.827027 287.961075 69.229614 302.401505 216.183105-2.760682-22.934936-31.004639-35.676575-43.958558-32.49115-6.370941 15.714661-17.201294 35.888916-34.614837 48.418213 1.486511-14.015808.849762-28.456299-2.123535-42.472107-4.672028 19.537109-13.803559 37.800232-26.332856 53.514893-20.174255 1.486389-40.34851-8.282166-50.966613-22.934998-.849762-.637085-1.061768-1.911255-1.698853-2.76062-.637115-1.486694-1.2742-2.973083-1.698852-4.459717-.637116-1.48645-1.061799-2.973022-1.27417-4.459411-.212738-1.486634-.212738-2.973145-.212738-4.671936 0-1.06189 0-2.123658 0-3.185425.212738-1.486634.637054-2.973145 1.061798-4.459717.424377-1.48645.849762-2.972961 1.486541-4.459595.849793-1.486389 1.486481-2.9729 2.548371-4.459472 3.610077-10.19336 3.610077-18.475342-2.973053-23.35962-1.27417-.849853-2.54831-1.486572-4.034882-2.123657-.849792-.212768-1.911285-.637085-2.760681-.849792-.637085-.212769-1.061767-.4245-1.698883-.637146-1.486542-.424378-2.973114-.849732-4.459595-1.061707-1.486541-.424438-2.973022-.637085-4.459594-.637085-1.486451-.212768-3.185425-.424438-4.671906-.424438-1.061768 0-2.123627.212707-3.185425.212707-1.698852 0-3.185425.212769-4.671905.637085-1.486542.212769-2.973023.424317-4.459626.849732-1.48645.424438-2.973022.849792-4.459594 1.486694-1.48645.637024-2.76062 1.27417-4.247193 1.911133-1.274078.637207-2.548278 1.48645-4.03482 2.123596-49.480042 32.278748-19.961853 107.87915 13.803406 129.75238-12.741639 2.335877-25.695557 5.09668-29.305664 7.8573-.212739.212769-.424378.424378-.424378.424378 9.1315 5.521301 18.687683 10.193298 28.668549 14.228088 13.591125 4.459595 28.031646 8.494446 34.402496 10.19342v.212708c17.625916 3.610168 35.464264 4.884277 53.514893 3.82251 94.075805-6.58313 171.162689-78.148743 185.178497-172.43689.424438 1.911377.849792 3.610107 1.27417 5.521484.637146 3.822327 1.486511 7.8573 1.911194 11.89209v.212708c.424438 1.911255.637085 3.822449.849731 5.521423v.849793c.212769 1.911193.424439 3.822448.424439 5.521301.212768 2.335998.424438 4.671997.424438 7.008057v3.397644c0 1.061889.212708 2.335998.212708 3.397827 0 1.274231-.212708 2.548279-.212708 3.822448v2.973023c0 1.486572-.212707 2.760742-.212707 4.247253 0 .849671 0 1.698914-.212769 2.760681 0 1.486573-.212646 2.973023-.212646 4.671998-.212769.636962-.212769 1.274108-.212769 1.911193-.212708 1.698914-.424377 3.185486-.637146 4.884339 0 .637146 0 1.27417-.212769 1.911255-.212646 2.123535-.636962 4.034851-.849609 6.158447v.212646.212769c-.424377 1.911255-.849853 4.03479-1.274231 5.946045v.637085c-.424377 1.911255-.849792 3.82251-1.27417 5.733642 0 .212769-.212646.637146-.212646.849732-.4245 1.911377-.849854 3.822632-1.486512 5.733948v.637024c-.637085 2.123535-1.274169 4.03479-1.698913 5.946044-.212708.212769-.212708.424439-.212708.424439-.637146 2.123657-1.274109 4.247192-1.911132 6.370789-.849854 2.123657-1.486573 4.034851-2.335999 6.158508-.849792 2.123596-1.486633 4.247192-2.335999 6.158386-.849792 2.123657-1.698974 4.034973-2.548278 6.158508h-.212769c-.849792 1.911255-1.698975 4.034912-2.760864 5.946167-.212708.637024-.424317 1.061768-.637024 1.486451-.212708.212707-.212708.424316-.424378.637085-13.803405 27.819152-34.190124 52.240661-59.673278 71.353149-1.698853 1.061768-3.397827 2.336059-5.096619 3.610107-.424438.424439-1.06189.637085-1.486633 1.061768-1.486512 1.061829-2.973023 2.123596-4.671814 3.185425l.637024 1.274231h.212707c2.972962-.424378 5.946045-.849793 8.919129-1.274231h.212768c5.521301-.849732 11.042725-1.911255 16.564148-2.972962 1.486389-.212768 3.185364-.637146 4.671814-1.06195 1.061768-.212708 1.911255-.424317 2.973084-.637085 1.486572-.212708 2.973022-.637085 4.459655-.849671 1.274109-.424438 2.548279-.637146 3.822449-1.061828 21.236023-5.09668 41.835083-12.104615 61.584473-20.386658-33.765259 46.082153-78.998108 83.2453-131.875855 107.666809 24.421478-1.698975 48.842957-5.733826 72.414978-12.529236 85.58136-25.271057 157.571533-82.820679 200.680725-160.332336-8.706787 49.055359-28.243957 95.774658-57.125 136.547973 20.598938-13.591125 39.499085-29.305908 56.700257-47.144165 47.568786-49.692382 78.785827-112.763366 89.403808-180.50653 7.220276 33.553039 9.343933 68.167907 6.158448 102.357971 153.324401-213.84729 12.741638-435.551697-46.082154-493.950867-.212768-.424316-.424438-.637024-.424438-1.061706-.212769.212707-.212769.212707-.212769.424438 0-.212769 0-.212769-.212707-.424438 0 2.548278-.212769 5.096557-.424378 7.644958-.637146 4.884277-1.274109 9.556152-2.123657 14.228149-1.061829 4.671936-2.335937 9.34375-3.610168 14.015809-1.486451 4.459533-3.185242 9.131408-5.096497 13.591003-1.911377 4.247192-4.034912 8.706726-6.37085 12.95404-2.336059 4.034852-4.884338 8.282044-7.645019 12.104554-2.760681 4.034973-5.733704 7.8573-8.706787 11.467346-3.185486 3.822571-6.583191 7.220398-9.981018 10.618164-2.123474 1.911255-4.03479 3.610107-6.158448 5.308899-1.698852 1.486633-3.185363 2.760864-4.884338 4.247192-3.822449 2.973084-7.644897 5.733826-11.892151 8.282105-4.03479 2.54834-8.281921 5.096679-12.529114 7.220337-4.459716 2.123596-8.91925 4.03479-13.378723 5.946106-4.459717 1.698852-9.131531 3.185363-13.803589 4.459594-4.671875 1.274109-9.556213 2.335938-14.228149 3.185364-4.884216.849793-9.768555 1.27417-14.440491 1.698914-3.397705.212707-6.795471.424438-10.193298.424438-4.884339 0-9.768555-.424438-14.440491-.849792-4.884338-.424378-9.768677-1.061951-14.440552-2.12378-4.884216-.849731-9.556274-2.123596-14.22821-3.609985h-.212708c4.671936-.424377 9.343934-.849853 14.015931-1.698975 4.884155-.84967 9.556091-1.911193 14.228149-3.185424 4.671814-1.274048 9.343811-2.76062 13.803345-4.459534 4.671875-1.698914 9.131531-3.822449 13.378723-5.946106 4.459595-2.123657 8.494385-4.459595 12.741577-7.007874 4.034851-2.760681 8.069702-5.521362 11.892212-8.494506 3.82251-2.973023 7.432556-6.158326 10.830444-9.556153 3.610108-3.185425 6.795471-6.795593 9.980896-10.405761 3.185364-3.822327 6.158448-7.644898 8.91919-11.467408.424438-.637085.849853-1.48645 1.27417-2.123596 2.123535-3.397705 4.247131-6.795532 6.158386-10.193298 2.336059-4.247254 4.459656-8.494507 6.370911-12.953919 1.911193-4.459655 3.610046-8.91925 5.096679-13.591125 1.48645-4.459656 2.548218-9.131531 3.610047-13.803406.849792-4.884277 1.698913-9.556274 2.123657-14.22821.424316-4.884217.84967-9.768555.84967-14.440491 0-3.397766-.212768-6.795471-.424316-10.193298-.424378-4.884217-1.061768-9.556275-1.698914-14.22815-.849731-4.884338-1.911194-9.556213-3.185425-14.228271-1.486389-4.459473-2.973022-9.131409-4.671936-13.590882-1.698974-4.459655-3.822387-8.919189-5.946106-13.166504-2.335998-4.247192-4.671936-8.494384-7.220214-12.529174-2.760682-4.034851-5.521424-7.8573-8.494507-11.679871-3.185242-3.610168-6.370728-7.220276-9.768555-10.830383-1.698791-1.698853-3.610107-3.610108-5.521362-5.30896-9.556214-7.432678-19.537171-14.440613-29.518006-20.811341-1.486572-.849792-2.760681-1.486633-4.247253-2.123657-7.008057-4.459534-13.591125-6.795593-20.174255-8.919189z" fill="#ea2845" fill-rule="evenodd"/></svg>