<?xml version="1.0" encoding="UTF-8"?>
<!-- Generated by Pixelmator Pro 3.8 -->
<svg width="1024" height="1024" viewBox="0 0 1024 1024" xmlns="http://www.w3.org/2000/svg">
    <g id="work">
        <path id="fly-fut" fill="#fc4e4e" stroke="none" d="M 224.114365 744.276489 C 213.45372 739.974426 213.135818 737.851318 213.135818 670.957031 L 213.135818 608.813721 L 218.166138 603.783447 L 223.196426 598.753052 L 315.51181 598.753052 L 407.827179 598.753052 L 407.827179 542.395081 L 407.827179 486.037048 L 316.11731 485.971863 C 247.257217 485.922974 223.59726 485.284668 221.155746 483.410156 C 214.501175 478.300903 213.135818 471.987 213.135818 446.32312 C 213.135818 422.178467 213.423782 420.350464 218.080475 414.935303 L 223.025116 409.185181 L 315.426147 408.612061 L 407.827179 408.039001 L 407.827179 348.667603 C 407.827179 292.283691 408.030792 289.092651 411.87381 285.249634 C 414.099487 283.023987 418.018921 280.690613 420.583679 280.064331 C 423.148499 279.43811 509.940857 279.184082 613.455688 279.499878 L 801.664368 280.074036 L 806.693054 285.920654 L 811.721619 291.767273 L 811.126282 355.270691 L 810.530945 418.774048 L 805.69281 422.689514 C 801.006897 426.481689 794.796753 426.604919 608.439636 426.604919 L 416.024689 426.604919 L 416.024689 447.098816 L 416.024689 467.59259 L 607.799683 467.59259 L 799.574585 467.59259 L 805.565125 473.58313 L 811.555603 479.573608 L 811.555603 540.322754 C 811.555603 602.146484 811.043457 606.756958 803.535645 612.52124 C 801.034241 614.441772 755.953613 615.032837 608.154358 615.083008 L 416.024689 615.148132 L 416.024689 674.714966 C 416.024689 709.650757 415.19519 735.831787 414.018585 738.030273 C 412.915192 740.09198 409.088745 742.797974 405.515259 744.043701 C 397.662903 746.781067 230.85112 746.995117 224.114365 744.276489 Z"/>
    </g>
</svg>
