<svg height="1024" viewBox="0 0 1024 1024" width="1024" xmlns="http://www.w3.org/2000/svg" xmlns:xlink="http://www.w3.org/1999/xlink"><linearGradient id="a" gradientUnits="userSpaceOnUse" x1="443.806565" x2="443.806565" y1="115.366056" y2="909.094366"><stop offset=".00001" stop-color="#ff1b2d"/><stop offset=".3" stop-color="#ff1b2d"/><stop offset=".614" stop-color="#ff1b2d"/><stop offset="1" stop-color="#a70014"/></linearGradient><linearGradient id="b" gradientUnits="userSpaceOnUse" x1="649.432817" x2="649.432817" y1="162.157079" y2="864.166894"><stop offset=".00001" stop-color="#9c0000"/><stop offset=".7" stop-color="#ff4b4b"/><stop offset="1" stop-color="#ff4b4b"/></linearGradient><path d="m512.079041 102.017822c-226.154267 0-409.490128 183.335877-409.490128 409.490113 0 219.610107 172.891312 398.843261 389.987808 409.013305 6.478821.305542 12.967713.47876 19.508057.47876 104.841369 0 200.454529-39.422058 272.901855-104.210083-48.000183 31.833496-104.119018 50.14978-164.093628 50.14978-97.517151 0-184.852691-48.377197-243.590667-124.665771-45.279938-53.44928-74.607025-132.458069-76.60492-221.126953v-19.28418c1.996582-88.666077 31.323517-167.690674 76.593384-221.126892 58.746613-76.288696 146.079254-124.665833 243.590668-124.665833 59.989074 0 116.118042 18.316224 164.122558 50.170044-72.092041-64.491882-167.127319-103.83313-271.38507-104.220215-.519532 0-1.02887-.020263-1.54834-.020263z" fill="url(#a)"/><path d="m377.2966 280.759827c37.578705-44.362671 86.10904-71.113953 139.130707-71.113953 119.21521 0 215.839661 135.157959 215.839661 301.880798 0 166.72284-96.631653 301.88086-215.839661 301.88086-53.021667 0-101.552002-26.739807-139.120605-71.103821 58.736511 76.288513 146.064819 124.665771 243.590637 124.665771 59.978943 0 116.097839-18.316284 164.093689-50.14978 83.816467-74.984131 136.593933-183.971496 136.593933-305.2901 0-121.304199-52.767395-230.285828-136.56366-305.261291-48.010254-31.853638-104.139282-50.169983-164.122497-50.169983-97.517151 0-184.852722 48.377197-243.590699 124.665893" fill="url(#b)"/></svg>