<svg height="1024" viewBox="0 0 1024 1024" width="1024" xmlns="http://www.w3.org/2000/svg"><path d="m346.386719 225.203003c0-67.484863-54.708557-122.19342-122.19336-122.19342-67.484802 0-122.193359 54.708557-122.193359 122.19342 0 67.484802 54.708557 122.193359 122.193359 122.193359 67.484803 0 122.19336-54.708557 122.19336-122.193359m287.301819 0c0-67.484863-54.708496-122.19342-122.19336-122.19342-67.484772 0-122.193359 54.708557-122.193359 122.19342 0 67.484802 54.708587 122.193359 122.193359 122.193359 67.484864 0 122.19336-54.708557 122.19336-122.193359m287.301818 0c0-67.484863-54.708496-122.19342-122.193359-122.19342-67.484741 0-122.193359 54.708557-122.193359 122.19342 0 67.484802 54.708618 122.193359 122.193359 122.193359 67.484863 0 122.193359-54.708557 122.193359-122.193359m-287.301818 287.301819c0-67.484802-54.708496-122.19336-122.19336-122.19336-67.484772 0-122.193359 54.708558-122.193359 122.19336s54.708587 122.193359 122.193359 122.193359c67.484864 0 122.19336-54.708557 122.19336-122.193359m0 287.301819c0-67.484803-54.708496-122.19336-122.19336-122.19336-67.484772 0-122.193359 54.708557-122.193359 122.19336 0 67.484802 54.708587 122.193359 122.193359 122.193359 67.484864 0 122.19336-54.708557 122.19336-122.193359" fill="#06f"/></svg>