<svg width="23" height="23" viewBox="0 0 23 23" fill="none" xmlns="http://www.w3.org/2000/svg">
  <path d="M23 7.48c-2.03-1.559-4.614-2.435-7.114-2.55-.99-.047-1.962.025-2.88.222.829-.903 2.25-1.596 4.44-1.778-.994-.253-1.828-.362-2.558-.373L14.725 3c-3.386.017-4.498 2.151-9.143 1.459.027.721.072 1.44.15 2.156.088.276.251.524.476.764-.083-.508.03-.99.306-1.614a1.83 1.83 0 01.905-.1A1.856 1.856 0 018.997 7.76a1.852 1.852 0 01-2.04 1.59c-.333-.448-.517-.84-.562-1.29-.155.291-.249.573-.262.862.132.534.296 1.065.498 1.593l5.865-1.181a3.892 3.892 0 01-.226-.524c2.013-.895 7.02.596 8.634 4.512-2.465-1.643-5.623-1.554-8.746-.338.441-.958 1.349-2 2.885-3.068-5.74 1.63-4.686 4.232-10.043 6.355.38.609.776 1.207 1.198 1.784.214.196.48.33.796.425-.324-.397-.467-.87-.538-1.544a1.844 1.844 0 011.458-.678c.722.01 1.4.446 1.689 1.16a1.86 1.86 0 01-.967 2.395c-.516-.22-.875-.467-1.14-.836.011.334.072.629.208.888.38.394.785.77 1.221 1.124l4.49-3.965a3.884 3.884 0 01-.873-.75C14.624 15.188 22.062 18.242 23 23H0V0h23zm-12.563 6.196a.605.605 0 01.218 1.164.605.605 0 11-.218-1.164zm.86-8.822c.02 0 .04 0 .061.007a.605.605 0 01-.165 1.198.603.603 0 01.105-1.203z" fill="black"/>
</svg>
