<?xml version="1.0" encoding="UTF-8"?>
<!-- Generated by Pixelmator Pro 3.8 -->
<svg width="1024" height="1024" viewBox="0 0 1024 1024" xmlns="http://www.w3.org/2000/svg">
    <style>:root{color:#000}@media(prefers-color-scheme:dark){:root{color:#fff}}</style>
    <g id="posts">
        <g id="facebook-nokia">
            <path id="nokia" fill="currentColor" stroke="none" d="M 141.434845 783.912598 L 102 783.912598 L 102 649.801392 L 170.202225 649.801392 L 248.447449 749.924133 L 248.447449 649.801392 L 287.882294 649.801392 L 287.882294 783.912598 L 221.062134 783.912598 L 141.434845 682.0802 L 141.434845 783.912598 M 476.559418 742.440552 C 476.559418 761.083008 473.262939 767.512146 467.806366 773.67511 C 459.442291 782.8479 447.269928 785.612061 423.815826 785.612061 L 356.483795 785.612061 C 333.029663 785.612061 320.836792 782.8479 312.483002 773.67511 C 307.026398 767.512146 303.729919 761.083008 303.729919 742.440552 L 303.729919 690.741089 C 303.729919 672.108887 307.026398 665.689941 312.483002 659.516724 C 320.847046 650.33374 333.029663 647.56958 356.483795 647.56958 L 423.815826 647.56958 C 447.269928 647.56958 459.442291 650.33374 467.806366 659.516724 C 473.262939 665.689941 476.559418 672.108887 476.559418 690.741089 L 476.559418 742.440552 M 422.157349 751.633789 C 431.166351 751.633789 434.339966 751.10144 436.500061 749.135864 C 438.516876 747.303345 439.407501 744.938477 439.407501 737.055542 L 439.407501 696.126099 C 439.407501 688.243164 438.516876 685.898804 436.500061 684.05603 C 434.339966 682.0802 431.166351 681.558105 422.157349 681.558105 L 358.132019 681.558105 C 349.123016 681.558105 345.949371 682.0802 343.79953 684.05603 C 341.772491 685.898804 340.881836 688.243164 340.881836 696.126099 L 340.881836 737.055542 C 340.881836 744.938477 341.772491 747.303345 343.79953 749.135864 C 345.949371 751.10144 349.123016 751.633789 358.132019 751.633789 L 422.157349 751.633789 L 422.157349 751.633789 M 533.868958 649.801392 L 533.868958 783.912598 L 492.662994 783.912598 L 492.662994 649.801392 L 533.868958 649.801392 M 603.483948 649.801392 L 657.886047 649.801392 L 584.462646 712.526489 L 667.273804 783.912598 L 609.063354 783.912598 L 533.868958 713.970032 L 603.483948 649.801392 M 674.870056 649.801392 L 716.086243 649.801392 L 716.086243 783.912598 L 674.870056 783.912598 M 873.201111 783.912598 L 861.00824 760.550659 L 781.268372 760.550659 L 769.218811 783.902405 L 723.692688 783.902405 L 796.737244 649.801392 L 847.965698 649.801392 L 921 783.912598 L 873.201111 783.912598 M 795.590637 731.424927 L 846.829285 731.424927 L 821.204895 682.86853 L 795.590637 731.424927"/>
            <path id="path1" fill="currentColor" fill-rule="evenodd" stroke="none" d="M 504.079102 520.007813 L 504.079102 544.525391 L 519.738281 544.525391 L 519.738281 520.007813 L 543.866211 520.007813 L 543.866211 505.060547 L 519.738281 505.060547 L 519.738281 480.542969 L 504.079102 480.542969 L 504.079102 505.060547 L 479.951172 505.060547 L 479.951172 520.007813 L 504.079102 520.007813 Z"/>
            <path id="facebook" fill="currentColor" stroke="none" d="M 368.788269 309.512695 C 350.937439 306.454285 345.811951 305.781921 337.222778 305.781921 C 321.794434 305.781921 317.131958 309.186096 317.131958 322.286011 L 317.131958 347.068115 C 317.131958 360.169983 321.794434 363.589539 337.222778 363.589539 C 345.811951 363.589539 350.937439 362.90564 368.788269 359.831909 L 368.788269 387.83374 C 353.152466 391.33783 342.966858 392.259949 334.356506 392.259949 C 297.404236 392.259949 282.715576 372.826172 282.715576 344.755127 L 282.715576 324.645142 C 282.715576 296.549133 297.404236 277.082703 334.356506 277.082703 C 342.966858 277.082703 353.152466 278.008667 368.788269 281.528076 L 368.788269 309.512695 Z M 413.380737 347.068115 C 413.380737 360.169983 418.047058 363.589539 433.471497 363.589539 C 447.337952 363.589539 455.800354 362.90564 473.61853 359.831909 L 473.61853 387.83374 C 456.434387 391.33783 447.480103 392.259949 430.618652 392.259949 C 393.664551 392.259949 378.96814 372.826172 378.96814 344.755127 L 378.96814 321.763489 C 378.96814 297.202271 389.872253 277.082703 427.738953 277.082703 C 465.605652 277.082703 476.496338 296.967896 476.496338 321.763489 L 476.496338 344.755127 L 413.380737 344.755127 L 413.380737 347.068115 Z M 588.378906 345.285339 C 588.378906 372.418884 580.625427 392.206177 533.646973 392.206177 C 516.683716 392.206177 506.732422 390.715393 488.00946 387.83374 L 488.00946 232.738098 L 522.41626 226.995911 L 522.41626 281.24762 C 529.850891 278.485046 539.475525 277.082703 548.235718 277.082703 C 582.646362 277.082703 588.378906 292.509033 588.378906 317.298889 L 588.378906 345.285339 Z M 236.812927 322.547302 C 236.812927 310.845886 235.471985 307.407166 217.473267 307.407166 L 188.044037 307.407166 L 190.921844 278.700256 L 223.090576 278.700256 C 262.584412 278.700256 271.242798 291.175842 271.242798 322.777832 L 271.242798 390.930542 L 242.558899 390.930542 L 241.315979 383.676514 C 228.217957 390.930542 216.528076 392.106262 208.816833 392.106262 C 187.780853 392.106262 176.580872 378.051514 176.580872 358.617737 C 176.580872 335.687561 189.64624 327.503723 213.022095 327.503723 L 236.812927 327.503723 L 236.812927 322.547302 Z M 698.672729 345.877075 C 698.672729 369.283691 689.009705 391.983337 648.578369 391.983337 C 608.127808 391.983337 598.284058 369.283691 598.284058 345.877075 L 598.284058 323.277344 C 598.284058 299.859192 608.127808 277.155701 648.578369 277.155701 C 689.009705 277.155701 698.672729 299.859192 698.672729 323.277344 L 698.672729 345.877075 Z M 758.791504 391.983337 C 799.2229 391.983337 808.885864 369.283691 808.885864 345.877075 L 808.885864 323.277344 C 808.885864 299.859192 799.2229 277.155701 758.791504 277.155701 C 718.340942 277.155701 708.497253 299.859192 708.497253 323.277344 L 708.497253 345.877075 C 708.497253 369.283691 718.340942 391.983337 758.791504 391.983337 Z M 153.616119 390.715393 L 119.199707 390.715393 L 119.199707 307.407166 L 102 307.407166 L 102 278.700256 L 119.199707 278.700256 L 119.199707 261.464172 C 119.199707 238.044128 128.906982 224.118103 156.493896 224.118103 L 179.462524 224.118103 L 179.462524 252.830811 L 165.106171 252.830811 C 154.365326 252.830811 153.658386 256.842041 153.658386 264.330444 L 153.65358 278.700256 L 179.623901 278.700256 L 176.580872 307.407166 L 153.643982 307.407166 L 153.616119 390.715393 Z M 853.16333 390.715393 L 818.744995 390.715393 L 818.744995 232.738098 L 853.16333 226.995911 L 853.16333 329.159973 L 884.703857 278.700256 L 922 278.700256 L 887.566284 333.259277 L 922 390.715393 L 884.703857 390.715393 L 853.16333 338.062134 L 853.16333 390.715393 Z M 236.812927 363.074646 L 236.812927 350.487671 L 221.455688 350.487671 C 214.188232 350.487671 210.993408 351.840088 210.993408 358.164368 C 210.993408 364.450195 213.959595 367.716064 220.506714 367.716064 C 227.530212 367.716064 231.687439 365.426086 236.812927 363.074646 Z M 539.625366 305.829956 C 532.605713 305.829956 527.545593 308.131409 522.41626 310.477051 L 522.41626 363.535767 C 527.330383 364.004517 530.146729 364.004517 534.811096 364.004517 C 551.659119 364.004517 553.968323 356.289368 553.968323 345.515869 L 553.968323 320.172791 C 553.968323 312.219482 551.328674 305.829956 539.625366 305.829956 Z M 648.463013 305.829956 C 636.75592 305.829956 632.698608 312.219482 632.698608 320.172852 L 632.698608 349.204407 C 632.698608 357.180786 636.75592 363.5896 648.463013 363.5896 C 660.139526 363.5896 664.2276 357.180786 664.2276 349.204407 L 664.2276 320.172852 C 664.2276 312.219482 660.139526 305.829956 648.463013 305.829956 Z M 742.911743 320.172852 C 742.911743 312.219482 746.969116 305.829956 758.676147 305.829956 C 770.352661 305.829956 774.440796 312.219482 774.440796 320.172852 L 774.440796 349.204407 C 774.440796 357.180786 770.352661 363.5896 758.676147 363.5896 C 746.969116 363.5896 742.911743 357.180786 742.911743 349.204407 L 742.911743 320.172852 Z M 413.380737 317.298889 L 413.380737 321.763489 L 442.079895 321.763489 L 442.079895 317.298889 C 442.079895 309.35321 439.413452 302.934814 427.738953 302.934814 C 416.051025 302.934814 413.380737 309.35321 413.380737 317.298889 Z"/>
        </g>
    </g>
</svg>
