<svg height="1024" viewBox="0 0 1024 1024" width="1024" xmlns="http://www.w3.org/2000/svg"><path d="m308.903351 814.870361s-49.515595-8.697448-49.795777-8.697448c.280182-212.712525 89.37497-398.593995 206.051331-434.109253-91.468597 70.211486-156.022278 241.967834-156.255554 442.806701m546.211578 37.613037s0-60.455444-48.815368-60.002563c-2.227295-238.045532-111.054993-433.856201-251.839173-466.934021v-38.791931c-19.519592 0-23.087097-25.825745-23.087097-25.825745l-16.97229-140.689636c0-5.733765-5.434967-5.633911-5.434967 0 0 .106506-16.991821 140.689636-16.991821 140.689636s-3.521057 25.825745-23.04065 25.825745v39.018249c-140.117523 33.730591-247.764404 228.94867-250.838836 466.254822-49.809052 0-49.809052 60.242371-49.809052 60.242371l343.414825 56.759155z" fill="#2083d5"/></svg>