<?xml version="1.0" encoding="UTF-8"?>
<!-- Generated by Pixelmator Pro 3.8 -->
<svg width="1024" height="1024" viewBox="0 0 1024 1024" xmlns="http://www.w3.org/2000/svg">
  <style>:root{color:#000}@media(prefers-color-scheme:dark){:root{color:#fff}}</style>
  <g id="work">
    <path id="piensa-diferente" fill="currentColor" fill-rule="evenodd" stroke="none"
      d="M 406.837158 921 L 308.301025 921 L 308.301025 820.246094 C 308.301025 798.447388 306.173431 777.622314 301.954346 757.824951 C 297.717194 738.027588 290.811523 720.538086 281.255463 705.392578 C 271.663269 690.283081 259.312469 678.14856 244.184937 669.007202 C 229.057434 659.901855 210.558243 655.322144 188.741501 655.322144 C 170.49472 655.322144 153.25766 659.108521 136.994247 666.681274 C 123.128891 673.13623 111.445198 683.323364 102.015289 697.224731 L 102.015289 508.194153 C 108.704582 510.285645 116.241264 512.034607 124.607376 513.513123 C 133.009521 514.973572 142.691864 515.71283 153.636292 515.71283 C 175.507156 515.71283 196.115921 512.250977 215.48056 505.327271 C 234.827179 498.403625 251.75769 488.018127 266.272186 474.170776 C 280.804688 460.323425 292.344147 443.230652 300.980713 422.874268 C 309.599213 402.536011 313.926544 378.717896 313.926544 351.437866 C 313.926544 327.511536 310.77121 305.911194 304.460541 286.600586 C 302.765686 281.371765 300.854462 276.359314 298.762939 271.527222 L 453.319519 271.527222 L 453.319519 555.487854 L 569.687622 555.487854 L 569.687622 271.527222 L 733.583923 271.527222 C 726.750427 281.876648 721.070801 293.325928 716.491089 305.838989 C 708.341431 328.106567 704.248474 353.150818 704.248474 380.97168 C 704.248474 406.953491 708.215149 430.609314 716.130493 451.939331 C 724.063843 473.269287 735.693481 491.588074 751.091492 506.895935 C 766.453308 522.203735 785.547485 534.139893 808.392029 542.722351 C 831.2005 551.30481 857.524841 555.596008 887.329102 555.596008 C 898.742371 555.596008 909.97522 555.055054 920.991821 553.973328 L 920.991821 658.639771 C 908.875366 656.440002 895.839478 655.340149 881.865845 655.340149 C 857.092102 655.340149 834.193542 658.062744 813.18811 663.507935 C 792.164673 668.971191 773.917908 676.075134 758.447815 684.783813 L 777.686218 757.446289 C 789.622375 751.333984 802.784546 746.537903 817.172852 743.040039 C 831.543091 739.560181 846.472229 737.811218 861.960327 737.811218 C 901.050232 737.811218 920.73938 755.030151 920.991821 789.468262 L 920.991821 800.647095 L 882.857544 801.963318 C 868.487305 802.396057 854.892395 803.045166 842.05481 803.92865 C 807.562622 806.54303 780.895691 815.37793 762.089966 830.43335 C 743.284302 845.488708 733.908508 867.86438 733.908508 897.524353 C 733.908508 905.638123 734.75592 913.427246 736.504883 921 L 636.003479 921 C 641.394531 908.180359 644.062988 893.810181 644.062988 877.871277 C 644.062988 862.166809 640.58313 848.752197 633.605347 837.609436 C 626.609619 826.48468 617.991089 817.000671 607.749756 809.139465 C 597.472473 801.278198 586.455933 794.84137 574.682068 789.828857 C 562.872192 784.816406 552.180115 780.561279 542.569946 777.063354 C 529.912598 772.267212 519.56311 768.228455 511.485535 764.946899 C 503.389923 761.683472 499.36911 756.346436 499.36911 748.917969 C 499.36911 741.48938 502.740814 736.585083 509.520233 734.187073 C 516.281616 731.789063 525.981934 730.581055 538.657349 730.581055 C 553.045593 730.581055 566.802795 732.221802 579.910889 735.485229 C 593.000916 738.766846 605.441895 743.021973 617.233826 748.250732 L 631.640076 679.518921 C 616.350281 670.792236 600.411438 664.571777 583.823486 660.857422 C 567.235474 657.161255 548.916626 655.304138 528.848816 655.304138 C 490.858765 655.304138 460.080872 663.598083 436.515137 680.186035 C 412.931396 696.755981 401.157593 722.521423 401.157593 757.428284 C 401.157593 771.401794 403.537537 783.608398 408.351685 794.084045 C 413.165833 804.559753 419.819 813.845337 428.31134 821.904968 C 436.839722 829.982544 446.990845 836.960327 458.782684 842.856262 C 470.55658 848.752197 483.213898 854.107239 496.736664 858.90332 C 513.324646 865.015625 525.78363 869.703491 534.077637 872.967041 C 542.371582 876.248596 546.518555 881.802002 546.518555 889.663086 C 546.518555 898.407898 541.812683 904.610291 532.43689 908.324646 C 523.04303 912.038879 512.026428 913.87793 499.36911 913.87793 C 487.144531 913.87793 472.846436 912.471558 456.474823 909.640869 C 440.121246 906.791992 425.155975 902.536926 411.633209 896.875366 L 406.837158 921 Z M 464.220642 213.590088 C 452.086243 201.022949 446.027985 185.570923 446.027985 167.215881 C 446.027985 148.860962 452.086243 133.408936 464.220642 120.82373 C 476.337067 108.274597 492.113678 102 511.496338 102 C 530.897095 102 546.65564 108.274597 558.790039 120.82373 C 570.906494 133.408936 576.982788 148.860962 576.982788 167.215881 C 576.982788 185.570923 570.906494 201.022949 558.790039 213.590088 C 546.65564 226.157288 530.897095 232.431885 511.496338 232.431885 C 492.113678 232.431885 476.337067 226.157288 464.220642 213.590088 Z M 918.783142 335.760498 L 819.561829 335.760498 C 819.561829 315.836914 824.339905 300.168457 833.877991 288.809265 C 843.416077 277.450134 857.046997 271.752563 874.770935 271.752563 C 889.195251 271.752563 900.374084 276.746948 908.307495 286.717773 C 916.222778 296.688538 920.189514 309.093567 920.189514 323.932495 C 920.189514 328.043457 919.738647 331.937988 918.783142 335.760498 Z M 102.00988 293.396301 C 108.302498 286.328369 115.604805 281.027405 123.988922 277.475403 C 132.391113 273.905396 142.271744 272.120361 153.63089 272.120361 C 174.239655 272.120361 189.295013 279.783264 198.760971 295.109131 C 208.226929 310.416931 212.950897 329.402893 212.950897 352.067139 C 212.950897 379.347168 207.054947 401.055664 195.281097 417.210999 C 183.507263 433.366211 164.358978 441.443787 137.854309 441.443787 C 130.28154 441.443787 123.556206 441.029114 117.660255 440.181702 C 111.81842 439.352295 106.607643 438.108154 102.00988 436.449402 L 102.00988 293.396301 Z M 920.984558 405.328918 L 920.984558 474.168945 C 914.295349 474.673828 907.750366 474.890137 901.313477 474.890137 C 873.835144 474.890137 853.460815 468.525452 840.172424 455.759888 C 826.884033 443.012451 819.798096 426.208069 818.860474 405.328918 L 920.984558 405.328918 Z M 920.984558 858.255981 L 920.984558 906.054565 C 913.411804 910.435913 905.15387 913.915833 896.138733 916.512207 C 887.051453 919.126709 877.441162 920.442871 867.272095 920.442871 C 857.0849 920.442871 849.241699 918.044861 843.706299 913.248779 C 838.171021 908.452576 835.412354 902.123962 835.412354 894.262695 C 835.412354 876.809326 846.248657 866.766357 867.939209 864.151978 C 875.890625 863.286499 884.076416 862.2948 892.478516 861.213013 C 900.862671 860.131226 910.328613 859.139526 920.984558 858.255981 Z M 201.442093 921 L 102.004471 921 L 102.004471 763.811035 C 106.818581 757.121704 113.147247 751.460205 120.972427 746.790283 C 129.194321 741.904053 138.876617 739.451965 150.019424 739.451965 C 167.38269 739.451965 180.29245 745.798645 188.748688 758.492065 C 197.204956 771.167358 201.442093 791.091003 201.442093 818.244751 L 201.442093 921 Z" />
  </g>
</svg>
