<?xml version="1.0" encoding="UTF-8"?>
<!-- Generated by Pixelmator Pro 3.8 -->
<svg width="1024" height="1024" viewBox="0 0 1024 1024" xmlns="http://www.w3.org/2000/svg">
    <style>:root{color:#000}@media(prefers-color-scheme:dark){:root{color:#fff}}</style>
    <g id="education">
        <g id="JJS">
            <path id="path1" fill="currentColor" fill-rule="evenodd" stroke="none" d="M 790.698364 685.32373 C 749.317566 685.32373 715.044495 676.479126 687.87854 658.789551 C 660.712524 641.100098 647.1297 621.199707 647.1297 599.087769 C 647.1297 576.659912 658.501282 565.446228 681.244995 565.446228 C 690.40564 565.446228 698.46051 568.526123 705.410095 574.685791 C 712.359497 580.84552 718.203308 588.268799 722.941467 596.955505 C 727.67981 605.642334 732.733765 614.329041 738.103821 623.015869 C 743.473938 631.702637 750.897095 639.046875 760.373535 645.048706 C 769.850037 651.050415 781.063965 654.051331 794.015076 654.051331 C 807.914063 654.051331 818.890991 650.57666 826.945862 643.627197 C 835.000977 636.677856 839.028259 627.043396 839.028259 614.723999 C 839.028259 602.404419 835.63269 592.059326 828.841248 583.688477 C 822.049561 575.317505 813.205078 568.842041 802.307007 564.261658 C 791.408936 559.681335 779.326721 555.574951 766.059448 551.9422 C 752.792236 548.30957 739.525452 544.045288 726.258179 539.148987 C 712.991211 534.252808 700.908752 528.251099 690.010681 521.143616 C 679.112854 514.036316 670.18927 503.770203 663.239685 490.345276 C 656.290283 476.920105 652.815613 460.88916 652.815613 442.251892 C 652.815613 411.927063 664.503113 387.288452 687.87854 368.33551 C 711.253967 349.382324 742.368164 339.906067 781.221863 339.906067 C 819.443848 339.906067 851.742676 348.513794 878.118958 365.729309 C 904.4953 382.945007 917.52533 402.608521 917.209473 424.72052 C 917.209473 435.460693 914.129456 443.910278 907.969788 450.07019 C 901.810059 456.229919 892.886475 459.309631 881.19873 459.309631 C 870.774658 459.309631 861.929932 456.229919 854.66449 450.07019 C 847.399231 443.910278 841.63446 436.566162 837.369934 428.037292 C 833.105591 419.508362 828.841248 410.900635 824.576904 402.213806 C 820.312378 393.526978 814.468506 386.103821 807.045349 379.944153 C 799.621948 373.784424 790.540405 370.704407 779.800293 370.704407 C 765.585693 370.704407 754.687866 374.574036 747.106506 382.313293 C 739.525208 390.052307 735.734924 400.081665 735.734924 412.401062 C 735.734924 425.984192 739.130493 437.434692 745.921936 446.753418 C 752.713623 456.07196 761.558105 463.258118 772.456177 468.312317 C 783.354248 473.366577 795.436462 477.867676 808.703735 481.816345 C 821.970947 485.764832 835.158875 490.108276 848.267944 494.846375 C 861.377075 499.584717 873.380615 505.349487 884.278503 512.14093 C 895.176514 518.932617 904.021301 528.645874 910.812744 541.281128 C 917.604187 553.916565 921 569.236816 921 587.242126 C 921 617.251221 908.443787 641.100098 883.330872 658.789551 C 858.218262 676.479126 827.341003 685.32373 790.698364 685.32373 Z M 514.458984 395.817322 C 514.458984 387.920166 511.30014 380.102051 504.982483 372.362793 C 498.664734 364.623779 495.506012 358.859009 495.506012 355.068237 L 495.506012 353.173096 C 495.506012 347.171326 499.29657 344.17041 506.877747 344.17041 L 611.118958 344.17041 C 618.384399 344.17041 622.017029 347.171326 622.017029 353.173096 L 622.017029 355.068237 C 622.017029 358.859009 618.542358 364.623779 611.592957 372.362793 C 604.643372 380.102051 601.168701 387.920166 601.168701 395.817322 L 601.168701 529.909424 C 601.168701 584.557434 591.06073 623.96344 570.843872 648.12854 C 550.627502 672.293701 521.09259 684.692017 482.238892 685.32373 C 460.442871 685.639587 441.569122 682.954651 425.616943 677.268738 C 409.664795 671.582764 397.740295 664.159668 389.843231 654.999023 C 381.946167 645.838318 376.181274 636.598877 372.548676 627.280273 C 368.915955 617.96167 367.09964 608.56427 367.09964 599.087769 C 367.09964 586.452393 370.57431 576.344299 377.523804 568.763 C 384.473267 561.181763 393.791718 557.391235 405.479431 557.391235 C 417.167145 557.391235 426.485565 560.629028 433.435059 567.104614 C 440.384521 573.580322 445.20163 581.477234 447.886658 590.795898 C 450.571686 600.114441 453.019836 609.353882 455.230957 618.514526 C 457.442078 627.675171 460.916779 635.493225 465.655121 641.968811 C 470.393372 648.444458 477.026764 651.682251 485.555634 651.682251 C 504.824677 651.682251 514.458984 628.623047 514.458984 582.503906 Z M 249.591324 395.817322 C 249.591324 387.920166 246.432495 380.102051 240.114853 372.362793 C 233.797195 364.623779 230.638382 358.859009 230.638382 355.068237 L 230.638382 353.173096 C 230.638382 347.171326 234.428925 344.17041 242.010117 344.17041 L 346.251434 344.17041 C 353.516754 344.17041 357.149384 347.171326 357.149384 353.173096 L 357.149384 355.068237 C 357.149384 358.859009 353.674683 364.623779 346.72522 372.362793 C 339.775726 380.102051 336.301056 387.920166 336.301056 395.817322 L 336.301056 529.909424 C 336.301056 584.557434 326.192963 623.96344 305.976349 648.12854 C 285.759766 672.293701 256.225067 684.692017 217.371246 685.32373 C 195.575226 685.639587 176.701477 682.954651 160.749313 677.268738 C 144.79715 671.582764 132.87265 664.159668 124.975594 654.999023 C 117.078537 645.838318 111.313644 636.598877 107.68103 627.280273 C 104.048302 617.96167 102.231995 608.56427 102.231995 599.087769 C 102.231995 586.452393 105.70668 576.344299 112.656158 568.763 C 119.605637 561.181763 128.924072 557.391235 140.611786 557.391235 C 152.2995 557.391235 161.617935 560.629028 168.567413 567.104614 C 175.516891 573.580322 180.333984 581.477234 183.019012 590.795898 C 185.704041 600.114441 188.152069 609.353882 190.363312 618.514526 C 192.574448 627.675171 196.049133 635.493225 200.787476 641.968811 C 205.525711 648.444458 212.159225 651.682251 220.688004 651.682251 C 239.957031 651.682251 249.591324 628.623047 249.591324 582.503906 Z"/>
        </g>
    </g>
</svg>
