<?xml version="1.0" encoding="UTF-8"?>
<!-- Generated by Pixelmator Pro 3.8 -->
<svg width="1024" height="1024" viewBox="0 0 1024 1024" xmlns="http://www.w3.org/2000/svg">
    <g id="work">
        <path id="bahiazul" fill="#2083d5" stroke="none" d="M 308.903351 814.870361 C 308.903351 814.870361 259.387756 806.172913 259.107574 806.172913 C 259.387756 593.460388 348.482544 407.578918 465.158905 372.06366 C 373.690308 442.275146 309.136627 614.031494 308.903351 814.870361 M 855.114929 852.483398 C 855.114929 852.483398 855.114929 792.027954 806.299561 792.480835 C 804.072266 554.435303 695.244568 358.624634 554.460388 325.546814 L 554.460388 286.754883 C 534.940796 286.754883 531.373291 260.929138 531.373291 260.929138 L 514.401001 120.239502 C 514.401001 114.505737 508.966034 114.605591 508.966034 120.239502 C 508.966034 120.346008 491.974213 260.929138 491.974213 260.929138 C 491.974213 260.929138 488.453156 286.754883 468.933563 286.754883 L 468.933563 325.773132 C 328.81604 359.503723 221.169159 554.721802 218.094727 792.027954 C 168.285675 792.027954 168.285675 852.270325 168.285675 852.270325 L 511.7005 909.02948 Z"/>
    </g>
</svg>
