<?xml version="1.0" encoding="UTF-8"?>
<!-- Generated by Pixelmator Pro 3.8 -->
<svg width="1024" height="1024" viewBox="0 0 1024 1024" xmlns="http://www.w3.org/2000/svg">
    <style>:root{color:#000}@media(prefers-color-scheme:dark){:root{color:#fff}}</style>
    <g id="education">
        <g id="bostype">
            <path id="Path" fill="#ffc600" stroke="none" d="M 174.338562 790.855286 L 511.25 747.381836 L 845.5 790.512085 L 838.305298 832.245972 L 509.889832 788.186768 L 181.47403 832.245972 L 174.338562 790.855286 Z"/>
            <path id="path1" fill="currentColor" fill-rule="evenodd" stroke="none" d="M 782.062439 516.660278 L 694.933655 293.724976 L 621.940308 420.751282 L 511.25 192.62793 L 400.560364 420.751282 L 327.565399 293.724976 L 240.437225 516.660278 L 101.500015 410.381714 L 169.799393 791.44104 L 511.25 747.381836 L 852.699219 791.44104 L 921 410.381714 L 782.062439 516.660278 Z M 511.43222 401.740173 C 510.254883 396.080688 508.941406 396.313171 507.721527 402.076416 C 494.604431 463.849182 417.801849 508.182068 417.801849 583.981567 C 417.801849 634.826294 458.9086 676.030884 509.613037 676.030884 C 560.317444 676.030884 601.424255 634.826294 601.424255 583.981567 C 601.424255 508.04187 524.341064 463.687744 511.43222 401.740173 Z M 476.033936 588.474426 L 501.252228 527.262695 L 540.888367 527.262695 L 515.670044 571.468079 L 551.693176 571.468079 L 483.234314 632.675537 L 501.252228 588.474426 L 476.033936 588.474426 Z"/>
        </g>
    </g>
</svg>
