<svg height="1024" viewBox="0 0 1024 1024" width="1024" xmlns="http://www.w3.org/2000/svg"><path d="m921 640.471436-.278564-18.263672-4.211182-6.370789-3.174988-15.774109-21.218872-111.562683-48.701599-257.384827-11.847595-62.369751-6.317871-30.745605c-7.375977.087524-11.979248 6.921265-17.568909 11.31543-10.871887 8.546692-23.158203 16.672851-35.137878 23.572998-44.277283 25.503723-90.91449 51.683166-141.429871 62.333801-14.953308 3.152771-29.670227 2.840576-44.800781 3.877747-18.535645 1.270629-36.644959 3.340881-55.342102 2.522155-59.238343-2.593872-118.840546-13.076843-178.324677-10.472168-17.287109.756958-35.704376 1.489197-52.706757 4.687012-55.765655 10.488403-111.030975 41.852783-154.606613 77.146057-12.662201 10.255554-26.492752 20.319397-37.521728 32.36499-9.542565 10.422059-6.046166 21.699769-3.259598 34.224793 5.135956 23.085083 11.598671 45.97052 15.067787 69.397278 3.237229 21.860779 10.183922 43.341919 14.720772 65.005005 13.063644 62.378112 26.621643 124.721069 39.687347 187.109131 4.516877 21.567993 11.68216 43.15332 14.396744 65.005065 3.776276 30.397889 13.765167 60.456788 19.805725 90.479981 1.528458 7.596924 1.392792 26.79602 10.051987 30.080749 8.933166 3.38855 25.641602-7.267944 34.221451-10.009399 3.414917-1.091003 8.150451-2.373474 9.459564-6.110352 6.815247-19.454711-13.210052-40.972839-8.301865-60.518676 2.309113-9.195435 18.625656-17.521118 26.074143-22.404419 24.243744-15.894348 46.9505-34.300782 74.667938-44.279541 113.317383-40.796509 234.975128 7.482422 351.378632-9.238648 17.189636-2.469177 33.582092-8.690307 50.071472-13.902588 34.783508-10.995117 67.937683-23.131286 100.142883-40.747497 15.417664-8.433411 29.763123-18.952942 44.722107-28.180054 6.578247-4.057678 12.416321-9.427673 20.282898-10.787414" fill="#fe5004"/><path d="m516.914612 314.018738c90.985657-4.504639 170.158264 86.437073 160.60321 175.359863-2.411133 22.439392-9.983825 47.078552-21.306396 66.761963-3.313965 5.761108-6.582459 12.315796-10.630127 17.568909-2.688416 3.489135-7.390442 6.421692-9.09082 10.541381-1.875916 4.545044 3.607055 9.083558 6.04132 12.298218 5.653321 7.466065 11.595826 14.73645 17.553284 21.961182 2.501526 3.033691 6.226318 8.064453 5.619141 12.294861-.914307 6.369934-16.589539 14.641784-21.414856 18.823547-4.382752 3.79834-9.655762 9.969605-15.812073 10.66272-6.493836.731079-10.56665-6.401123-13.539978-11.035523-4.970459-7.74707-11.003845-14.87323-16.867432-21.960449-2.234863-2.701294-5.394592-6.852173-9.122619-7.447143-4.321473-.689698-10.970032 6.196777-14.933594 8.094482-8.9776 4.29834-20.921997 7.002258-30.745667 8.048279-10.838745 1.154175-22.489746 3.664734-33.380951 3.374206-49.011413-1.307739-99.80017-29.136718-127.708923-69.169494-48.642181-69.773377-33.272491-173.707276 35.472046-224.350952 30.109406-22.181397 62.70166-30.01587 99.264435-31.82605m-5.270691 52.750915c-7.893952 1.074524-16.96402.86792-24.596466 2.625733-27.914612 6.429199-54.561066 27.462036-68.575775 52.342895-4.28537 7.607849-6.027588 17.157776-8.280152 25.474915-7.93457 29.297119-4.34613 64.581909 12.477875 90.47998 23.566559 36.277344 70.10202 53.316345 111.814179 47.286927 3.962341-.572693 23.758789-4.308106 23.309265-8.730835-.654785-6.442627-10.333435-10.048035-7.102722-17.472718 2.48352-5.70758 9.752075-8.72174 14.539062-12.189758 5.859741-4.245178 10.612976-9.832886 16.690491-13.845093 3.092773-2.041748 7.611755-4.312988 10.972412-1.42395 3.401611 2.924072 5.327453 13.60437 12.210144 8.986389 7.1026-4.765442 13.119568-22.737488 15.61145-30.721252 18.238464-58.434265-16.497009-122.329529-74.810364-138.437989-11.561767-3.193847-22.091674-6.031677-34.259399-4.375244z" fill="#fff"/></svg>