<svg xmlns="http://www.w3.org/2000/svg" viewBox="0 0 100 100" width="100%" height="100%">
  <rect width="100" height="100" rx="20" fill="#0f172a" />
  <path d="M50 15 C33.4 15 35 21.7 35 21.7 L35 28.3 L50 28.3 L50 30.8 L30.3 30.8 C30.3 30.8 15 32.2 15 50 C15 67.8 28.3 66.7 28.3 66.7 L33.3 66.7 L33.3 60 C33.3 49 42.2 47.8 42.2 47.8 L57.8 47.8 C57.8 47.8 65 47.4 65 33.3 C65 19.3 50 15 50 15 Z" fill="#38bdf8" />
  <path d="M50 85 C66.6 85 65 78.3 65 78.3 L65 71.7 L50 71.7 L50 69.2 L69.7 69.2 C69.7 69.2 85 67.8 85 50 C85 32.2 71.7 33.3 71.7 33.3 L66.7 33.3 L66.7 40 C66.7 51 57.8 52.2 57.8 52.2 L42.2 52.2 C42.2 52.2 35 52.6 35 66.7 C35 80.7 50 85 50 85 Z" fill="#eab308" />
  <circle cx="41.7" cy="21.7" r="2.5" fill="#f8fafc" />
  <circle cx="58.3" cy="78.3" r="2.5" fill="#0f172a" />
</svg>
